<svg xmlns="http://www.w3.org/2000/svg" width="1180" height="1311" viewBox="0 0 1180 1311" role="img" aria-label="60-on-demand-paused-clock-hindsight-dropped-wake">
<title>60-on-demand-paused-clock-hindsight-dropped-wake</title>
<style>
  text { font-family: "Segoe UI Variable Text", "Segoe UI", Inter, system-ui, -apple-system, "Helvetica Neue", Arial, sans-serif;
         font-size: 13px; fill: #e6edf3; font-variant-numeric: tabular-nums; }
  .card { fill: #1f242b; fill-opacity: 0.94; stroke: #8b949e; stroke-opacity: 0.25; stroke-width: 1; }
  .title { font-size: 20px; font-weight: 600; letter-spacing: -0.01em; }
  .sub { fill: #8b949e; }
  .label { font-size: 11px; font-weight: 600; letter-spacing: 0.08em; fill: #8b949e; }
  .vsync-n { font-size: 11px; fill: #6e7681; letter-spacing: 0.04em; }
  .axis { font-size: 12px; fill: #c9d1d9; }
  .vsync { stroke: #ffffff; stroke-opacity: 0.34; stroke-width: 1; stroke-dasharray: 3 4; }
  .vsync-skip { stroke: #ffffff; stroke-opacity: 0.09; stroke-width: 1; stroke-dasharray: 2 6; }
  .vsync-target { font-size: 11px; font-weight: 600; fill: #c9d1d9; letter-spacing: 0.04em; }
  .vsync-n-skip { font-size: 11px; fill: #545b64; letter-spacing: 0.04em; }
  .box { fill: #ffffff; fill-opacity: 0.06; stroke: #ffffff; stroke-opacity: 0.22; stroke-width: 1; }
  .frame { font-size: 14px; font-weight: 700; }
  .box-time { fill: #b1bac4; font-size: 12px; }
  .arrow { stroke: #8b949e; stroke-width: 1.2; }
  .arrowhead { fill: #8b949e; }
  .ok { fill: #2ea043; }
  .hold { fill: #2ea043; fill-opacity: 0.45; }
  .again { fill: #d29922; }
  .off { fill: #e5534b; }
  .cell-text { font-size: 14px; font-weight: 700; fill: #ffffff; }
  .dark-text { fill: #1c1f24; }
  .zero { fill: #6e7681; }
  .err { fill: #ff7b72; font-weight: 600; }
  .err-pill { fill: #e5534b; fill-opacity: 0.16; }
  .neutral { fill: #3d444d; }
  .lane { font-size: 15px; font-weight: 600; }
  .same { fill: #7ee787; font-weight: 600; }

  .tile { fill: #ffffff; fill-opacity: 0.05; stroke: #ffffff; stroke-opacity: 0.12; stroke-width: 1; }
  .tile-value { font-size: 20px; font-weight: 600; }
  .grid { stroke: #ffffff; stroke-opacity: 0.1; stroke-width: 1; }
  .zero-line { stroke: #ffffff; stroke-opacity: 0.45; stroke-width: 1; }
  .bar { fill: #e5534b; }
  .display-line { stroke: #2ea043; stroke-width: 2; fill: none; }
  .step-line { stroke: #58a6ff; stroke-width: 1.2; fill: none; stroke-linejoin: round; }
  .strip-a { fill: #6e7681; }
  .strip-b { fill: #adbac7; }
  .average-line { stroke: #d29922; stroke-width: 1.5; stroke-dasharray: 6 4; }
  .average-text { fill: #d29922; font-size: 12px; }

  .band { fill: #ffffff; fill-opacity: 0.06; }
  .error-refresh { stroke: #d29922; stroke-opacity: 0.8; stroke-width: 1; stroke-dasharray: 3 4; }
  .error-refresh-text { font-size: 11px; fill: #d29922; letter-spacing: 0.04em; }
  .held { stroke: #2ea043; stroke-width: 2.5; fill: none; }
  .held-late { stroke: #e5534b; stroke-width: 2.5; fill: none; }
  .bar-range { fill: #e5534b; fill-opacity: 0.3; }
  .static-band { fill: #a371f7; fill-opacity: 0.14; }
  .static-text { font-size: 11px; fill: #a371f7; letter-spacing: 0.04em; }
  .strip-static-a { fill: #a371f7; fill-opacity: 0.55; }
  .strip-static-b { fill: #a371f7; fill-opacity: 0.85; }
  .held-older { stroke: #db61a2; stroke-width: 2.5; fill: none; }
  .held-dropped { stroke: #f0883e; stroke-width: 2.5; fill: none; }
  .held-unknown { stroke: #768390; stroke-width: 2.5; stroke-dasharray: 4 3; fill: none; }
  .held-range-older { fill: #db61a2; fill-opacity: 0.3; }
  .held-range-dropped { fill: #f0883e; fill-opacity: 0.3; }
  .held-range-unknown { fill: #768390; fill-opacity: 0.3; }
  .held-fill-older { fill: #db61a2; }
  .held-fill-dropped { fill: #f0883e; }
  .held-fill-unknown { fill: #768390; }
  .strip-older { fill: #db61a2; }
  .strip-dropped { fill: #f0883e; }
  .key-pink { fill: #db61a2; }
  .key-orange { fill: #f0883e; }
  .key-unknown { fill: #768390; }
  .key-faint { fill: #ffffff; fill-opacity: 0.3; }
  .key-amber { fill: #d29922; }
  .key-green { fill: #2ea043; }
  .key-red { fill: #e5534b; }
  .key-blue { fill: #58a6ff; }
  .key-blue-faint { fill: #58a6ff; fill-opacity: 0.45; }
  .key-violet-a { fill: #a371f7; fill-opacity: 0.55; }
  .key-violet-b { fill: #a371f7; fill-opacity: 0.85; }
  .key-grey { fill: #3d444d; }
  .held-fill { fill: #2ea043; }
  .held-fill-late { fill: #e5534b; }
  .held-range { fill: #2ea043; fill-opacity: 0.3; }
  .held-range-late { fill: #e5534b; fill-opacity: 0.3; }
  .riser { stroke: #ffffff; stroke-opacity: 0.3; stroke-width: 1; fill: none; }
  .late-line { stroke: #e5534b; stroke-width: 1.5; fill: none; stroke-linejoin: round; }
  .late-line-adapted { stroke: #d29922; stroke-width: 1.5; fill: none; stroke-linejoin: round; }
  .late-line-none { stroke: #2ea043; stroke-width: 1.5; fill: none; stroke-linejoin: round; }
  .frametime { stroke: #58a6ff; stroke-width: 2.5; fill: none; }
  .frametime-range { fill: #58a6ff; fill-opacity: 0.3; }
  .step-range { fill: #58a6ff; fill-opacity: 0.25; }
  .frametime-fill { fill: #58a6ff; }
  .cpu-busy { fill: #58a6ff; fill-opacity: 0.22; }
  .strip-late { fill: #e5534b; }
  .hist-bar { fill: #58a6ff; }
  .curve { stroke: #58a6ff; stroke-width: 2; fill: none; stroke-linejoin: round; }
  .clip-mark { fill: #e5534b; }
  .clip-text { font-size: 11px; fill: #e6edf3; }
  .warn { fill: #d29922; }
  .event-track { fill: #ffffff; fill-opacity: 0.05; }
  .event-dropped { fill: #f0883e; }
  .event-older { fill: #db61a2; }
  .event-torn { fill: #39c5cf; }
  .event-gap { fill: #768390; }
  .event-undecoded { fill: #545d68; }
  .key-cyan { fill: #39c5cf; }
  .key-undecoded { fill: #545d68; }
  .ref-target { stroke: #adbac7; stroke-width: 1.5; stroke-dasharray: 5 4; fill: none; }
  .ref-preferred { stroke: #d29922; stroke-width: 1.5; stroke-dasharray: 5 4; fill: none; }
  .key-light { fill: #adbac7; }
</style>
<rect class="card" x="0.5" y="0.5" width="1179" height="1310" rx="14"/>
<text x="20.0" y="30.0" text-anchor="start" class="title">60-on-demand-paused-clock-hindsight-dropped-wake</text>
<text x="20.0" y="54.0" text-anchor="start" class="sub">The whole run: 8.0 s, 432 presented frames on a 60 Hz display, measured against a 16.7 ms target.</text>
<text x="20.0" y="73.0" text-anchor="start" class="sub">Resolution 16.7 ms (one capture period); error threshold 1 ms.</text>
<text x="20.0" y="92.0" text-anchor="start" class="sub">Every frame is drawn.</text>
<text x="20.0" y="111.0" text-anchor="start" class="sub">Frame rates and display time steps excluding 8 static frames: nothing animates while they are on screen.</text>
<text x="20.0" y="130.0" text-anchor="start" class="sub">1 static frame is assumed: its flag was lost with a dropped frame.</text>
<rect class="tile" x="860.0" y="14" width="300" height="84" rx="10"/>
<text x="874.0" y="33.0" text-anchor="start" class="label">DISPLAY</text>
<text x="874.0" y="56.0" text-anchor="start"><tspan class="tile-value">60 Hz</tspan><tspan class="vsync-n">  fixed refresh (vsync)</tspan></text>
<text x="874.0" y="74.0" text-anchor="start" class="vsync-n">16.7 ms per refresh, target 1–8 refreshes</text>
<text x="874.0" y="90.0" text-anchor="start" class="vsync-n">on demand</text>
<rect class="tile" x="20.0" y="161" width="218.4" height="64" rx="10"/>
<text x="34.0" y="181.0" text-anchor="start" class="label">AVERAGE FPS</text>
<text x="34.0" y="205.0" text-anchor="start"><tspan class="tile-value">60.0</tspan><tspan class="vsync-n">  16.67 ms · 8 static excluded</tspan></text>
<rect class="tile" x="250.4" y="161" width="218.4" height="64" rx="10"/>
<text x="264.4" y="181.0" text-anchor="start" class="label">1 % LOW</text>
<text x="264.4" y="205.0" text-anchor="start"><tspan class="tile-value">60.0</tspan><tspan class="vsync-n">  16.7 ms</tspan></text>
<rect class="tile" x="480.8" y="161" width="218.4" height="64" rx="10"/>
<text x="494.8" y="181.0" text-anchor="start" class="label">0.1 % LOW</text>
<text x="494.8" y="205.0" text-anchor="start"><tspan class="tile-value">-</tspan><tspan class="vsync-n">  needs 1,000 frames</tspan></text>
<rect class="tile" x="711.2" y="161" width="218.4" height="64" rx="10"/>
<text x="725.2" y="181.0" text-anchor="start" class="label">FRAMES DROPPED</text>
<text x="725.2" y="205.0" text-anchor="start"><tspan class="tile-value warn">1</tspan><tspan class="vsync-n">  0.2 %</tspan></text>
<rect class="tile" x="941.6" y="161" width="218.4" height="64" rx="10"/>
<text x="955.6" y="181.0" text-anchor="start" class="label">OUT OF ORDER</text>
<text x="955.6" y="205.0" text-anchor="start"><tspan class="tile-value">0</tspan><tspan class="vsync-n">  refreshes</tspan></text>
<rect class="tile" x="20.0" y="237" width="218.4" height="64" rx="10"/>
<text x="34.0" y="257.0" text-anchor="start" class="label">FRAMES VISIBLY OFF</text>
<text x="34.0" y="281.0" text-anchor="start"><tspan class="tile-value">0</tspan><tspan class="vsync-n">  0.0 %</tspan></text>
<rect class="tile" x="250.4" y="237" width="218.4" height="64" rx="10"/>
<text x="264.4" y="257.0" text-anchor="start" class="label">ERROR P99</text>
<text x="264.4" y="281.0" text-anchor="start"><tspan class="tile-value">0.0 ms</tspan></text>
<rect class="tile" x="480.8" y="237" width="218.4" height="64" rx="10"/>
<text x="494.8" y="257.0" text-anchor="start" class="label">ERROR P99.9</text>
<text x="494.8" y="281.0" text-anchor="start"><tspan class="tile-value">-</tspan><tspan class="vsync-n">  needs 1,000 frames</tspan></text>
<rect class="tile" x="711.2" y="237" width="218.4" height="64" rx="10"/>
<text x="725.2" y="257.0" text-anchor="start" class="label">WORST ERROR</text>
<text x="725.2" y="281.0" text-anchor="start"><tspan class="tile-value">0.0 ms</tspan></text>
<rect class="tile" x="941.6" y="237" width="218.4" height="64" rx="10"/>
<text x="955.6" y="257.0" text-anchor="start" class="label">LATE FRAMES</text>
<text x="955.6" y="281.0" text-anchor="start"><tspan class="tile-value">0</tspan><tspan class="vsync-n">  0.0 %</tspan></text>
<text x="20.0" y="337.0" text-anchor="start" class="label">ANIMATION ERROR PER FRAME: + SHOWN TOO SOON, − SHOWN TOO LATE</text>
<rect class="band" x="110.0" y="390.5" width="1030.0" height="75.0"/>
<line class="grid" x1="110" y1="390.5" x2="1140" y2="390.5"/>
<text x="100.0" y="394.5" text-anchor="end" class="vsync-n">+1 ms</text>
<line class="grid" x1="110" y1="465.5" x2="1140" y2="465.5"/>
<text x="100.0" y="469.5" text-anchor="end" class="vsync-n">−1 ms</text>
<rect class="static-band" x="110.0" y="353.0" width="8.6" height="150.0"/>
<rect class="static-band" x="232.3" y="353.0" width="17.2" height="150.0"/>
<rect class="static-band" x="361.1" y="353.0" width="15.0" height="150.0"/>
<rect class="static-band" x="489.8" y="353.0" width="15.0" height="150.0"/>
<rect class="static-band" x="618.6" y="353.0" width="15.0" height="150.0"/>
<rect class="static-band" x="747.3" y="353.0" width="15.0" height="150.0"/>
<rect class="static-band" x="876.1" y="353.0" width="15.0" height="150.0"/>
<rect class="static-band" x="1004.8" y="353.0" width="15.0" height="150.0"/>
<text x="1140.0" y="337.0" text-anchor="end" class="vsync-n"><tspan class="key-faint">■</tspan> within the error threshold  <tspan class="key-violet-a">■</tspan> static: nothing animates</text>
<line class="zero-line" x1="110" y1="428" x2="1140" y2="428"/>
<text x="100.0" y="432.0" text-anchor="end" class="vsync-n">0</text>
<text x="110.0" y="521.0" text-anchor="middle" class="vsync-n">0 s</text>
<text x="238.8" y="521.0" text-anchor="middle" class="vsync-n">1 s</text>
<text x="367.5" y="521.0" text-anchor="middle" class="vsync-n">2 s</text>
<text x="496.2" y="521.0" text-anchor="middle" class="vsync-n">3 s</text>
<text x="625.0" y="521.0" text-anchor="middle" class="vsync-n">4 s</text>
<text x="753.8" y="521.0" text-anchor="middle" class="vsync-n">5 s</text>
<text x="882.5" y="521.0" text-anchor="middle" class="vsync-n">6 s</text>
<text x="1011.2" y="521.0" text-anchor="middle" class="vsync-n">7 s</text>
<text x="1140.0" y="521.0" text-anchor="middle" class="vsync-n">8 s</text>
<text x="20.0" y="557.0" text-anchor="start" class="label">DISPLAY TIME STEP: HOW LONG EACH FRAME STAYED ON SCREEN</text>
<line class="grid" x1="110" y1="651.0" x2="1140" y2="651.0"/>
<text x="100.0" y="655.0" text-anchor="end" class="vsync-n">16.7 ms</text>
<line class="grid" x1="110" y1="599.0" x2="1140" y2="599.0"/>
<text x="100.0" y="603.0" text-anchor="end" class="vsync-n">33.3 ms</text>
<line class="grid" x1="110" y1="703.0" x2="1140" y2="703.0"/>
<text x="100.0" y="707.0" text-anchor="end" class="vsync-n">0</text>
<rect class="static-band" x="110.0" y="573.0" width="8.6" height="130.0"/>
<rect class="static-band" x="232.3" y="573.0" width="17.2" height="130.0"/>
<rect class="static-band" x="361.1" y="573.0" width="15.0" height="130.0"/>
<rect class="static-band" x="489.8" y="573.0" width="15.0" height="130.0"/>
<rect class="static-band" x="618.6" y="573.0" width="15.0" height="130.0"/>
<rect class="static-band" x="747.3" y="573.0" width="15.0" height="130.0"/>
<rect class="static-band" x="876.1" y="573.0" width="15.0" height="130.0"/>
<rect class="static-band" x="1004.8" y="573.0" width="15.0" height="130.0"/>
<text x="1140.0" y="557.0" text-anchor="end" class="vsync-n"><tspan class="key-green">━</tspan> as planned  <tspan class="key-orange">━</tspan> held: frames never shown before the next  <tspan class="key-violet-a">■</tspan> static: nothing animates</text>
<path class="riser" d="M118.6 573.0V651.0M120.7 651.0V651.0M125.0 651.0V651.0M127.2 651.0V651.0M131.5 651.0V651.0M133.6 651.0V651.0M137.9 651.0V651.0M140.0 651.0V651.0M144.3 651.0V651.0M146.5 651.0V651.0M150.8 651.0V651.0M152.9 651.0V651.0M157.2 651.0V651.0M159.4 651.0V651.0M163.6 651.0V651.0M165.8 651.0V651.0M170.1 651.0V651.0M172.2 651.0V651.0M176.5 651.0V651.0M178.7 651.0V651.0M183.0 651.0V651.0M185.1 651.0V651.0M189.4 651.0V651.0M191.5 651.0V651.0M195.8 651.0V651.0M198.0 651.0V651.0M202.3 651.0V651.0M204.4 651.0V651.0M208.7 651.0V651.0M210.9 651.0V651.0M215.1 651.0V651.0M217.3 651.0V651.0M221.6 651.0V651.0M223.7 651.0V651.0M228.0 651.0V651.0M230.2 651.0V651.0M232.3 651.0V573.0M249.5 573.0V651.0M253.8 651.0V651.0M255.9 651.0V651.0M260.2 651.0V651.0M262.4 651.0V651.0M266.6 651.0V651.0M268.8 651.0V651.0M273.1 651.0V651.0M275.2 651.0V651.0M279.5 651.0V651.0M281.7 651.0V651.0M286.0 651.0V651.0M288.1 651.0V651.0M292.4 651.0V651.0M294.5 651.0V651.0M298.8 651.0V651.0M301.0 651.0V651.0M305.3 651.0V651.0M307.4 651.0V651.0M311.7 651.0V651.0M313.9 651.0V651.0M318.1 651.0V651.0M320.3 651.0V651.0M324.6 651.0V651.0M326.7 651.0V651.0M331.0 651.0V651.0M333.2 651.0V651.0M337.5 651.0V651.0M339.6 651.0V651.0M343.9 651.0V651.0M346.0 651.0V651.0M350.3 651.0V651.0M352.5 651.0V651.0M356.8 651.0V651.0M358.9 651.0V651.0M361.1 651.0V573.0M376.1 573.0V651.0M378.2 651.0V651.0M382.5 651.0V651.0M384.7 651.0V651.0M389.0 651.0V651.0M391.1 651.0V651.0M395.4 651.0V651.0M397.5 651.0V651.0M401.8 651.0V651.0M404.0 651.0V651.0M408.3 651.0V651.0M410.4 651.0V651.0M414.7 651.0V651.0M416.9 651.0V651.0M421.1 651.0V651.0M423.3 651.0V651.0M427.6 651.0V651.0M429.7 651.0V651.0M434.0 651.0V651.0M436.2 651.0V651.0M440.5 651.0V651.0M442.6 651.0V651.0M446.9 651.0V651.0M449.0 651.0V651.0M453.3 651.0V651.0M455.5 651.0V651.0M459.8 651.0V651.0M461.9 651.0V651.0M466.2 651.0V651.0M468.4 651.0V651.0M472.6 651.0V651.0M474.8 651.0V651.0M479.1 651.0V651.0M481.2 651.0V651.0M485.5 651.0V651.0M487.7 651.0V651.0M489.8 651.0V573.0M504.8 573.0V651.0M507.0 651.0V651.0M511.3 651.0V651.0M513.4 651.0V651.0M517.7 651.0V651.0M519.9 651.0V651.0M524.1 651.0V651.0M526.3 651.0V651.0M530.6 651.0V651.0M532.7 651.0V651.0M537.0 651.0V651.0M539.2 651.0V651.0M543.5 651.0V651.0M545.6 651.0V651.0M549.9 651.0V651.0M552.0 651.0V651.0M556.3 651.0V651.0M558.5 651.0V651.0M562.8 651.0V651.0M564.9 651.0V651.0M569.2 651.0V651.0M571.4 651.0V651.0M575.6 651.0V651.0M577.8 651.0V651.0M582.1 651.0V651.0M584.2 651.0V651.0M588.5 651.0V651.0M590.7 651.0V651.0M595.0 651.0V651.0M597.1 651.0V651.0M601.4 651.0V651.0M603.5 651.0V651.0M607.8 651.0V651.0M610.0 651.0V651.0M614.3 651.0V651.0M616.4 651.0V651.0M618.6 651.0V573.0M633.6 573.0V651.0M635.7 651.0V651.0M640.0 651.0V651.0M642.2 651.0V651.0M646.5 651.0V651.0M648.6 651.0V651.0M652.9 651.0V651.0M655.0 651.0V651.0M659.3 651.0V651.0M661.5 651.0V651.0M665.8 651.0V651.0M667.9 651.0V651.0M672.2 651.0V651.0M674.4 651.0V651.0M678.6 651.0V651.0M680.8 651.0V651.0M685.1 651.0V651.0M687.2 651.0V651.0M691.5 651.0V651.0M693.7 651.0V651.0M698.0 651.0V651.0M700.1 651.0V651.0M704.4 651.0V651.0M706.5 651.0V651.0M710.8 651.0V651.0M713.0 651.0V651.0M717.3 651.0V651.0M719.4 651.0V651.0M723.7 651.0V651.0M725.9 651.0V651.0M730.1 651.0V651.0M732.3 651.0V651.0M736.6 651.0V651.0M738.7 651.0V651.0M743.0 651.0V651.0M745.2 651.0V651.0M747.3 651.0V573.0M762.3 573.0V651.0M764.5 651.0V651.0M768.8 651.0V651.0M770.9 651.0V651.0M775.2 651.0V651.0M777.4 651.0V651.0M781.6 651.0V651.0M783.8 651.0V651.0M788.1 651.0V651.0M790.2 651.0V651.0M794.5 651.0V651.0M796.7 651.0V651.0M801.0 651.0V651.0M803.1 651.0V651.0M807.4 651.0V651.0M809.5 651.0V651.0M813.8 651.0V651.0M816.0 651.0V651.0M820.3 651.0V651.0M822.4 651.0V651.0M826.7 651.0V651.0M828.9 651.0V651.0M833.1 651.0V651.0M835.3 651.0V651.0M839.6 651.0V651.0M841.7 651.0V651.0M846.0 651.0V651.0M848.2 651.0V651.0M852.5 651.0V651.0M854.6 651.0V651.0M858.9 651.0V651.0M861.0 651.0V651.0M865.3 651.0V651.0M867.5 651.0V651.0M871.8 651.0V651.0M873.9 651.0V651.0M876.1 651.0V573.0M891.1 573.0V651.0M893.2 651.0V651.0M897.5 651.0V651.0M899.7 651.0V651.0M904.0 651.0V651.0M906.1 651.0V651.0M910.4 651.0V651.0M912.5 651.0V651.0M916.8 651.0V651.0M919.0 651.0V651.0M923.3 651.0V651.0M925.4 651.0V651.0M929.7 651.0V651.0M931.9 651.0V651.0M936.1 651.0V651.0M938.3 651.0V651.0M942.6 651.0V651.0M944.7 651.0V651.0M949.0 651.0V651.0M951.2 651.0V651.0M955.5 651.0V651.0M957.6 651.0V651.0M961.9 651.0V651.0M964.0 651.0V651.0M968.3 651.0V651.0M970.5 651.0V651.0M974.8 651.0V651.0M976.9 651.0V651.0M981.2 651.0V651.0M983.4 651.0V651.0M987.6 651.0V651.0M989.8 651.0V651.0M994.1 651.0V651.0M996.2 651.0V651.0M1000.5 651.0V651.0M1002.7 651.0V651.0M1004.8 651.0V573.0M1019.8 573.0V651.0M1022.0 651.0V651.0M1026.3 651.0V651.0M1028.4 651.0V651.0M1032.7 651.0V651.0M1034.9 651.0V651.0M1039.1 651.0V651.0M1041.3 651.0V651.0M1045.6 651.0V651.0M1047.7 651.0V651.0M1052.0 651.0V651.0M1054.2 651.0V651.0M1058.5 651.0V651.0M1060.6 651.0V651.0M1064.9 651.0V651.0M1067.0 651.0V651.0M1071.3 651.0V651.0M1073.5 651.0V651.0M1077.8 651.0V651.0M1079.9 651.0V651.0M1084.2 651.0V651.0M1086.4 651.0V651.0M1090.6 651.0V651.0M1092.8 651.0V651.0M1097.1 651.0V651.0M1099.2 651.0V651.0M1103.5 651.0V651.0M1105.7 651.0V651.0M1110.0 651.0V651.0M1112.1 651.0V651.0M1116.4 651.0V651.0M1118.5 651.0V651.0M1122.8 651.0V651.0M1125.0 651.0V651.0M1129.3 651.0V651.0M1131.4 651.0V651.0"/>
<path class="held" d="M110.0 573.0H118.6M118.6 651.0H120.7M120.7 651.0H122.9M122.9 651.0H125.0M125.0 651.0H127.2M127.2 651.0H129.3M129.3 651.0H131.5M131.5 651.0H133.6M133.6 651.0H135.8M135.8 651.0H137.9M137.9 651.0H140.0M140.0 651.0H142.2M142.2 651.0H144.3M144.3 651.0H146.5M146.5 651.0H148.6M148.6 651.0H150.8M150.8 651.0H152.9M152.9 651.0H155.1M155.1 651.0H157.2M157.2 651.0H159.4M159.4 651.0H161.5M161.5 651.0H163.6M163.6 651.0H165.8M165.8 651.0H167.9M167.9 651.0H170.1M170.1 651.0H172.2M172.2 651.0H174.4M174.4 651.0H176.5M176.5 651.0H178.7M178.7 651.0H180.8M180.8 651.0H183.0M183.0 651.0H185.1M185.1 651.0H187.2M187.2 651.0H189.4M189.4 651.0H191.5M191.5 651.0H193.7M193.7 651.0H195.8M195.8 651.0H198.0M198.0 651.0H200.1M200.1 651.0H202.3M202.3 651.0H204.4M204.4 651.0H206.6M206.6 651.0H208.7M208.7 651.0H210.9M210.9 651.0H213.0M213.0 651.0H215.1M215.1 651.0H217.3M217.3 651.0H219.4M219.4 651.0H221.6M221.6 651.0H223.7M223.7 651.0H225.9M225.9 651.0H228.0M228.0 651.0H230.2M230.2 651.0H232.3M249.5 651.0H251.6M251.6 651.0H253.8M253.8 651.0H255.9M255.9 651.0H258.1M258.1 651.0H260.2M260.2 651.0H262.4M262.4 651.0H264.5M264.5 651.0H266.6M266.6 651.0H268.8M268.8 651.0H270.9M270.9 651.0H273.1M273.1 651.0H275.2M275.2 651.0H277.4M277.4 651.0H279.5M279.5 651.0H281.7M281.7 651.0H283.8M283.8 651.0H286.0M286.0 651.0H288.1M288.1 651.0H290.2M290.2 651.0H292.4M292.4 651.0H294.5M294.5 651.0H296.7M296.7 651.0H298.8M298.8 651.0H301.0M301.0 651.0H303.1M303.1 651.0H305.3M305.3 651.0H307.4M307.4 651.0H309.6M309.6 651.0H311.7M311.7 651.0H313.9M313.9 651.0H316.0M316.0 651.0H318.1M318.1 651.0H320.3M320.3 651.0H322.4M322.4 651.0H324.6M324.6 651.0H326.7M326.7 651.0H328.9M328.9 651.0H331.0M331.0 651.0H333.2M333.2 651.0H335.3M335.3 651.0H337.5M337.5 651.0H339.6M339.6 651.0H341.8M341.8 651.0H343.9M343.9 651.0H346.0M346.0 651.0H348.2M348.2 651.0H350.3M350.3 651.0H352.5M352.5 651.0H354.6M354.6 651.0H356.8M356.8 651.0H358.9M358.9 651.0H361.1M361.1 573.0H376.1M376.1 651.0H378.2M378.2 651.0H380.4M380.4 651.0H382.5M382.5 651.0H384.7M384.7 651.0H386.8M386.8 651.0H389.0M389.0 651.0H391.1M391.1 651.0H393.2M393.2 651.0H395.4M395.4 651.0H397.5M397.5 651.0H399.7M399.7 651.0H401.8M401.8 651.0H404.0M404.0 651.0H406.1M406.1 651.0H408.3M408.3 651.0H410.4M410.4 651.0H412.6M412.6 651.0H414.7M414.7 651.0H416.9M416.9 651.0H419.0M419.0 651.0H421.1M421.1 651.0H423.3M423.3 651.0H425.4M425.4 651.0H427.6M427.6 651.0H429.7M429.7 651.0H431.9M431.9 651.0H434.0M434.0 651.0H436.2M436.2 651.0H438.3M438.3 651.0H440.5M440.5 651.0H442.6M442.6 651.0H444.8M444.8 651.0H446.9M446.9 651.0H449.0M449.0 651.0H451.2M451.2 651.0H453.3M453.3 651.0H455.5M455.5 651.0H457.6M457.6 651.0H459.8M459.8 651.0H461.9M461.9 651.0H464.1M464.1 651.0H466.2M466.2 651.0H468.4M468.4 651.0H470.5M470.5 651.0H472.6M472.6 651.0H474.8M474.8 651.0H476.9M476.9 651.0H479.1M479.1 651.0H481.2M481.2 651.0H483.4M483.4 651.0H485.5M485.5 651.0H487.7M487.7 651.0H489.8M489.8 573.0H504.8M504.8 651.0H507.0M507.0 651.0H509.1M509.1 651.0H511.3M511.3 651.0H513.4M513.4 651.0H515.6M515.6 651.0H517.7M517.7 651.0H519.9M519.9 651.0H522.0M522.0 651.0H524.1M524.1 651.0H526.3M526.3 651.0H528.4M528.4 651.0H530.6M530.6 651.0H532.7M532.7 651.0H534.9M534.9 651.0H537.0M537.0 651.0H539.2M539.2 651.0H541.3M541.3 651.0H543.5M543.5 651.0H545.6M545.6 651.0H547.8M547.8 651.0H549.9M549.9 651.0H552.0M552.0 651.0H554.2M554.2 651.0H556.3M556.3 651.0H558.5M558.5 651.0H560.6M560.6 651.0H562.8M562.8 651.0H564.9M564.9 651.0H567.1M567.1 651.0H569.2M569.2 651.0H571.4M571.4 651.0H573.5M573.5 651.0H575.6M575.6 651.0H577.8M577.8 651.0H579.9M579.9 651.0H582.1M582.1 651.0H584.2M584.2 651.0H586.4M586.4 651.0H588.5M588.5 651.0H590.7M590.7 651.0H592.8M592.8 651.0H595.0M595.0 651.0H597.1M597.1 651.0H599.2M599.2 651.0H601.4M601.4 651.0H603.5M603.5 651.0H605.7M605.7 651.0H607.8M607.8 651.0H610.0M610.0 651.0H612.1M612.1 651.0H614.3M614.3 651.0H616.4M616.4 651.0H618.6M618.6 573.0H633.6M633.6 651.0H635.7M635.7 651.0H637.9M637.9 651.0H640.0M640.0 651.0H642.2M642.2 651.0H644.3M644.3 651.0H646.5M646.5 651.0H648.6M648.6 651.0H650.8M650.8 651.0H652.9M652.9 651.0H655.0M655.0 651.0H657.2M657.2 651.0H659.3M659.3 651.0H661.5M661.5 651.0H663.6M663.6 651.0H665.8M665.8 651.0H667.9M667.9 651.0H670.1M670.1 651.0H672.2M672.2 651.0H674.4M674.4 651.0H676.5M676.5 651.0H678.6M678.6 651.0H680.8M680.8 651.0H682.9M682.9 651.0H685.1M685.1 651.0H687.2M687.2 651.0H689.4M689.4 651.0H691.5M691.5 651.0H693.7M693.7 651.0H695.8M695.8 651.0H698.0M698.0 651.0H700.1M700.1 651.0H702.2M702.2 651.0H704.4M704.4 651.0H706.5M706.5 651.0H708.7M708.7 651.0H710.8M710.8 651.0H713.0M713.0 651.0H715.1M715.1 651.0H717.3M717.3 651.0H719.4M719.4 651.0H721.6M721.6 651.0H723.7M723.7 651.0H725.9M725.9 651.0H728.0M728.0 651.0H730.1M730.1 651.0H732.3M732.3 651.0H734.4M734.4 651.0H736.6M736.6 651.0H738.7M738.7 651.0H740.9M740.9 651.0H743.0M743.0 651.0H745.2M745.2 651.0H747.3M747.3 573.0H762.3M762.3 651.0H764.5M764.5 651.0H766.6M766.6 651.0H768.8M768.8 651.0H770.9M770.9 651.0H773.1M773.1 651.0H775.2M775.2 651.0H777.4M777.4 651.0H779.5M779.5 651.0H781.6M781.6 651.0H783.8M783.8 651.0H785.9M785.9 651.0H788.1M788.1 651.0H790.2M790.2 651.0H792.4M792.4 651.0H794.5M794.5 651.0H796.7M796.7 651.0H798.8M798.8 651.0H801.0M801.0 651.0H803.1M803.1 651.0H805.2M805.2 651.0H807.4M807.4 651.0H809.5M809.5 651.0H811.7M811.7 651.0H813.8M813.8 651.0H816.0M816.0 651.0H818.1M818.1 651.0H820.3M820.3 651.0H822.4M822.4 651.0H824.6M824.6 651.0H826.7M826.7 651.0H828.9M828.9 651.0H831.0M831.0 651.0H833.1M833.1 651.0H835.3M835.3 651.0H837.4M837.4 651.0H839.6M839.6 651.0H841.7M841.7 651.0H843.9M843.9 651.0H846.0M846.0 651.0H848.2M848.2 651.0H850.3M850.3 651.0H852.5M852.5 651.0H854.6M854.6 651.0H856.8M856.8 651.0H858.9M858.9 651.0H861.0M861.0 651.0H863.2M863.2 651.0H865.3M865.3 651.0H867.5M867.5 651.0H869.6M869.6 651.0H871.8M871.8 651.0H873.9M873.9 651.0H876.1M876.1 573.0H891.1M891.1 651.0H893.2M893.2 651.0H895.4M895.4 651.0H897.5M897.5 651.0H899.7M899.7 651.0H901.8M901.8 651.0H904.0M904.0 651.0H906.1M906.1 651.0H908.2M908.2 651.0H910.4M910.4 651.0H912.5M912.5 651.0H914.7M914.7 651.0H916.8M916.8 651.0H919.0M919.0 651.0H921.1M921.1 651.0H923.3M923.3 651.0H925.4M925.4 651.0H927.6M927.6 651.0H929.7M929.7 651.0H931.9M931.9 651.0H934.0M934.0 651.0H936.1M936.1 651.0H938.3M938.3 651.0H940.4M940.4 651.0H942.6M942.6 651.0H944.7M944.7 651.0H946.9M946.9 651.0H949.0M949.0 651.0H951.2M951.2 651.0H953.3M953.3 651.0H955.5M955.5 651.0H957.6M957.6 651.0H959.8M959.8 651.0H961.9M961.9 651.0H964.0M964.0 651.0H966.2M966.2 651.0H968.3M968.3 651.0H970.5M970.5 651.0H972.6M972.6 651.0H974.8M974.8 651.0H976.9M976.9 651.0H979.1M979.1 651.0H981.2M981.2 651.0H983.4M983.4 651.0H985.5M985.5 651.0H987.6M987.6 651.0H989.8M989.8 651.0H991.9M991.9 651.0H994.1M994.1 651.0H996.2M996.2 651.0H998.4M998.4 651.0H1000.5M1000.5 651.0H1002.7M1002.7 651.0H1004.8M1004.8 573.0H1019.8M1019.8 651.0H1022.0M1022.0 651.0H1024.1M1024.1 651.0H1026.3M1026.3 651.0H1028.4M1028.4 651.0H1030.6M1030.6 651.0H1032.7M1032.7 651.0H1034.9M1034.9 651.0H1037.0M1037.0 651.0H1039.1M1039.1 651.0H1041.3M1041.3 651.0H1043.4M1043.4 651.0H1045.6M1045.6 651.0H1047.7M1047.7 651.0H1049.9M1049.9 651.0H1052.0M1052.0 651.0H1054.2M1054.2 651.0H1056.3M1056.3 651.0H1058.5M1058.5 651.0H1060.6M1060.6 651.0H1062.8M1062.8 651.0H1064.9M1064.9 651.0H1067.0M1067.0 651.0H1069.2M1069.2 651.0H1071.3M1071.3 651.0H1073.5M1073.5 651.0H1075.6M1075.6 651.0H1077.8M1077.8 651.0H1079.9M1079.9 651.0H1082.1M1082.1 651.0H1084.2M1084.2 651.0H1086.4M1086.4 651.0H1088.5M1088.5 651.0H1090.6M1090.6 651.0H1092.8M1092.8 651.0H1094.9M1094.9 651.0H1097.1M1097.1 651.0H1099.2M1099.2 651.0H1101.4M1101.4 651.0H1103.5M1103.5 651.0H1105.7M1105.7 651.0H1107.8M1107.8 651.0H1110.0M1110.0 651.0H1112.1M1112.1 651.0H1114.2M1114.2 651.0H1116.4M1116.4 651.0H1118.5M1118.5 651.0H1120.7M1120.7 651.0H1122.8M1122.8 651.0H1125.0M1125.0 651.0H1127.1M1127.1 651.0H1129.3M1129.3 651.0H1131.4M1131.4 651.0H1133.6"/>
<path class="held-dropped" d="M232.3 573.0H249.5"/>
<path class="clip-mark" d="M240.9 573.0L236.9 579.0H244.9Z"/>
<text x="246.9" y="590.0" text-anchor="start" class="clip-text">133.3 ms</text>
<path class="clip-mark" d="M368.6 573.0L364.6 579.0H372.6Z"/>
<text x="374.6" y="590.0" text-anchor="start" class="clip-text">116.7 ms</text>
<path class="clip-mark" d="M497.3 573.0L493.3 579.0H501.3Z"/>
<text x="503.3" y="590.0" text-anchor="start" class="clip-text">116.7 ms</text>
<path class="clip-mark" d="M626.1 573.0L622.1 579.0H630.1Z"/>
<text x="632.1" y="590.0" text-anchor="start" class="clip-text">116.7 ms</text>
<path class="clip-mark" d="M754.8 573.0L750.8 579.0H758.8Z"/>
<text x="760.8" y="590.0" text-anchor="start" class="clip-text">116.7 ms</text>
<path class="clip-mark" d="M883.6 573.0L879.6 579.0H887.6Z"/>
<text x="889.6" y="590.0" text-anchor="start" class="clip-text">116.7 ms</text>
<path class="clip-mark" d="M1012.3 573.0L1008.3 579.0H1016.3Z"/>
<text x="1018.3" y="590.0" text-anchor="start" class="clip-text">116.7 ms</text>
<path class="clip-mark" d="M114.3 573.0L110.3 579.0H118.3Z"/>
<text x="120.3" y="590.0" text-anchor="start" class="clip-text">66.7 ms</text>
<text x="110.0" y="721.0" text-anchor="middle" class="vsync-n">0 s</text>
<text x="238.8" y="721.0" text-anchor="middle" class="vsync-n">1 s</text>
<text x="367.5" y="721.0" text-anchor="middle" class="vsync-n">2 s</text>
<text x="496.2" y="721.0" text-anchor="middle" class="vsync-n">3 s</text>
<text x="625.0" y="721.0" text-anchor="middle" class="vsync-n">4 s</text>
<text x="753.8" y="721.0" text-anchor="middle" class="vsync-n">5 s</text>
<text x="882.5" y="721.0" text-anchor="middle" class="vsync-n">6 s</text>
<text x="1011.2" y="721.0" text-anchor="middle" class="vsync-n">7 s</text>
<text x="1140.0" y="721.0" text-anchor="middle" class="vsync-n">8 s</text>
<text x="20.0" y="757.0" text-anchor="start" class="label">FRAMETIME AND CPU BUSY: THE APPLICATION SIDE, FROM THE MARKERS</text>
<line class="grid" x1="110" y1="851.0" x2="1140" y2="851.0"/>
<text x="100.0" y="855.0" text-anchor="end" class="vsync-n">16.7 ms</text>
<line class="grid" x1="110" y1="799.0" x2="1140" y2="799.0"/>
<text x="100.0" y="803.0" text-anchor="end" class="vsync-n">33.3 ms</text>
<line class="grid" x1="110" y1="903.0" x2="1140" y2="903.0"/>
<text x="100.0" y="907.0" text-anchor="end" class="vsync-n">0</text>
<rect class="static-band" x="110.0" y="773.0" width="8.6" height="130.0"/>
<rect class="static-band" x="232.3" y="773.0" width="17.2" height="130.0"/>
<rect class="static-band" x="361.1" y="773.0" width="15.0" height="130.0"/>
<rect class="static-band" x="489.8" y="773.0" width="15.0" height="130.0"/>
<rect class="static-band" x="618.6" y="773.0" width="15.0" height="130.0"/>
<rect class="static-band" x="747.3" y="773.0" width="15.0" height="130.0"/>
<rect class="static-band" x="876.1" y="773.0" width="15.0" height="130.0"/>
<rect class="static-band" x="1004.8" y="773.0" width="15.0" height="130.0"/>
<text x="1140.0" y="757.0" text-anchor="end" class="vsync-n"><tspan class="key-blue">━</tspan> frametime: CPU start to the next  <tspan class="key-blue-faint">■</tspan> CPU busy: until presented  <tspan class="key-violet-a">■</tspan> static: nothing animates</text>
<path class="cpu-busy" d="M110.0 887.4H118.6V903.0H110.0ZM118.6 887.4H120.7V903.0H118.6ZM120.7 887.4H122.9V903.0H120.7ZM122.9 887.4H125.0V903.0H122.9ZM125.0 887.4H127.2V903.0H125.0ZM127.2 887.4H129.3V903.0H127.2ZM129.3 887.4H131.5V903.0H129.3ZM131.5 887.4H133.6V903.0H131.5ZM133.6 887.4H135.8V903.0H133.6ZM135.8 887.4H137.9V903.0H135.8ZM137.9 887.4H140.0V903.0H137.9ZM140.0 887.4H142.2V903.0H140.0ZM142.2 887.4H144.3V903.0H142.2ZM144.3 887.4H146.5V903.0H144.3ZM146.5 887.4H148.6V903.0H146.5ZM148.6 887.4H150.8V903.0H148.6ZM150.8 887.4H152.9V903.0H150.8ZM152.9 887.4H155.1V903.0H152.9ZM155.1 887.4H157.2V903.0H155.1ZM157.2 887.4H159.4V903.0H157.2ZM159.4 887.4H161.5V903.0H159.4ZM161.5 887.4H163.6V903.0H161.5ZM163.6 887.4H165.8V903.0H163.6ZM165.8 887.4H167.9V903.0H165.8ZM167.9 887.4H170.1V903.0H167.9ZM170.1 887.4H172.2V903.0H170.1ZM172.2 887.4H174.4V903.0H172.2ZM174.4 887.4H176.5V903.0H174.4ZM176.5 887.4H178.7V903.0H176.5ZM178.7 887.4H180.8V903.0H178.7ZM180.8 887.4H183.0V903.0H180.8ZM183.0 887.4H185.1V903.0H183.0ZM185.1 887.4H187.2V903.0H185.1ZM187.2 887.4H189.4V903.0H187.2ZM189.4 887.4H191.5V903.0H189.4ZM191.5 887.4H193.7V903.0H191.5ZM193.7 887.4H195.8V903.0H193.7ZM195.8 887.4H198.0V903.0H195.8ZM198.0 887.4H200.1V903.0H198.0ZM200.1 887.4H202.3V903.0H200.1ZM202.3 887.4H204.4V903.0H202.3ZM204.4 887.4H206.6V903.0H204.4ZM206.6 887.4H208.7V903.0H206.6ZM208.7 887.4H210.9V903.0H208.7ZM210.9 887.4H213.0V903.0H210.9ZM213.0 887.4H215.1V903.0H213.0ZM215.1 887.4H217.3V903.0H215.1ZM217.3 887.4H219.4V903.0H217.3ZM219.4 887.4H221.6V903.0H219.4ZM221.6 887.4H223.7V903.0H221.6ZM223.7 887.4H225.9V903.0H223.7ZM225.9 887.4H228.0V903.0H225.9ZM228.0 887.4H230.2V903.0H228.0ZM230.2 887.4H232.3V903.0H230.2ZM232.3 887.4H249.5V903.0H232.3ZM249.5 887.4H251.6V903.0H249.5ZM251.6 887.4H253.8V903.0H251.6ZM253.8 887.4H255.9V903.0H253.8ZM255.9 887.4H258.1V903.0H255.9ZM258.1 887.4H260.2V903.0H258.1ZM260.2 887.4H262.4V903.0H260.2ZM262.4 887.4H264.5V903.0H262.4ZM264.5 887.4H266.6V903.0H264.5ZM266.6 887.4H268.8V903.0H266.6ZM268.8 887.4H270.9V903.0H268.8ZM270.9 887.4H273.1V903.0H270.9ZM273.1 887.4H275.2V903.0H273.1ZM275.2 887.4H277.4V903.0H275.2ZM277.4 887.4H279.5V903.0H277.4ZM279.5 887.4H281.7V903.0H279.5ZM281.7 887.4H283.8V903.0H281.7ZM283.8 887.4H286.0V903.0H283.8ZM286.0 887.4H288.1V903.0H286.0ZM288.1 887.4H290.2V903.0H288.1ZM290.2 887.4H292.4V903.0H290.2ZM292.4 887.4H294.5V903.0H292.4ZM294.5 887.4H296.7V903.0H294.5ZM296.7 887.4H298.8V903.0H296.7ZM298.8 887.4H301.0V903.0H298.8ZM301.0 887.4H303.1V903.0H301.0ZM303.1 887.4H305.3V903.0H303.1ZM305.3 887.4H307.4V903.0H305.3ZM307.4 887.4H309.6V903.0H307.4ZM309.6 887.4H311.7V903.0H309.6ZM311.7 887.4H313.9V903.0H311.7ZM313.9 887.4H316.0V903.0H313.9ZM316.0 887.4H318.1V903.0H316.0ZM318.1 887.4H320.3V903.0H318.1ZM320.3 887.4H322.4V903.0H320.3ZM322.4 887.4H324.6V903.0H322.4ZM324.6 887.4H326.7V903.0H324.6ZM326.7 887.4H328.9V903.0H326.7ZM328.9 887.4H331.0V903.0H328.9ZM331.0 887.4H333.2V903.0H331.0ZM333.2 887.4H335.3V903.0H333.2ZM335.3 887.4H337.5V903.0H335.3ZM337.5 887.4H339.6V903.0H337.5ZM339.6 887.4H341.8V903.0H339.6ZM341.8 887.4H343.9V903.0H341.8ZM343.9 887.4H346.0V903.0H343.9ZM346.0 887.4H348.2V903.0H346.0ZM348.2 887.4H350.3V903.0H348.2ZM350.3 887.4H352.5V903.0H350.3ZM352.5 887.4H354.6V903.0H352.5ZM354.6 887.4H356.8V903.0H354.6ZM356.8 887.4H358.9V903.0H356.8ZM358.9 887.4H361.1V903.0H358.9ZM361.1 887.4H376.1V903.0H361.1ZM376.1 887.4H378.2V903.0H376.1ZM378.2 887.4H380.4V903.0H378.2ZM380.4 887.4H382.5V903.0H380.4ZM382.5 887.4H384.7V903.0H382.5ZM384.7 887.4H386.8V903.0H384.7ZM386.8 887.4H389.0V903.0H386.8ZM389.0 887.4H391.1V903.0H389.0ZM391.1 887.4H393.2V903.0H391.1ZM393.2 887.4H395.4V903.0H393.2ZM395.4 887.4H397.5V903.0H395.4ZM397.5 887.4H399.7V903.0H397.5ZM399.7 887.4H401.8V903.0H399.7ZM401.8 887.4H404.0V903.0H401.8ZM404.0 887.4H406.1V903.0H404.0ZM406.1 887.4H408.3V903.0H406.1ZM408.3 887.4H410.4V903.0H408.3ZM410.4 887.4H412.6V903.0H410.4ZM412.6 887.4H414.7V903.0H412.6ZM414.7 887.4H416.9V903.0H414.7ZM416.9 887.4H419.0V903.0H416.9ZM419.0 887.4H421.1V903.0H419.0ZM421.1 887.4H423.3V903.0H421.1ZM423.3 887.4H425.4V903.0H423.3ZM425.4 887.4H427.6V903.0H425.4ZM427.6 887.4H429.7V903.0H427.6ZM429.7 887.4H431.9V903.0H429.7ZM431.9 887.4H434.0V903.0H431.9ZM434.0 887.4H436.2V903.0H434.0ZM436.2 887.4H438.3V903.0H436.2ZM438.3 887.4H440.5V903.0H438.3ZM440.5 887.4H442.6V903.0H440.5ZM442.6 887.4H444.8V903.0H442.6ZM444.8 887.4H446.9V903.0H444.8ZM446.9 887.4H449.0V903.0H446.9ZM449.0 887.4H451.2V903.0H449.0ZM451.2 887.4H453.3V903.0H451.2ZM453.3 887.4H455.5V903.0H453.3ZM455.5 887.4H457.6V903.0H455.5ZM457.6 887.4H459.8V903.0H457.6ZM459.8 887.4H461.9V903.0H459.8ZM461.9 887.4H464.1V903.0H461.9ZM464.1 887.4H466.2V903.0H464.1ZM466.2 887.4H468.4V903.0H466.2ZM468.4 887.4H470.5V903.0H468.4ZM470.5 887.4H472.6V903.0H470.5ZM472.6 887.4H474.8V903.0H472.6ZM474.8 887.4H476.9V903.0H474.8ZM476.9 887.4H479.1V903.0H476.9ZM479.1 887.4H481.2V903.0H479.1ZM481.2 887.4H483.4V903.0H481.2ZM483.4 887.4H485.5V903.0H483.4ZM485.5 887.4H487.7V903.0H485.5ZM487.7 887.4H489.8V903.0H487.7ZM489.8 887.4H504.8V903.0H489.8ZM504.8 887.4H507.0V903.0H504.8ZM507.0 887.4H509.1V903.0H507.0ZM509.1 887.4H511.3V903.0H509.1ZM511.3 887.4H513.4V903.0H511.3ZM513.4 887.4H515.6V903.0H513.4ZM515.6 887.4H517.7V903.0H515.6ZM517.7 887.4H519.9V903.0H517.7ZM519.9 887.4H522.0V903.0H519.9ZM522.0 887.4H524.1V903.0H522.0ZM524.1 887.4H526.3V903.0H524.1ZM526.3 887.4H528.4V903.0H526.3ZM528.4 887.4H530.6V903.0H528.4ZM530.6 887.4H532.7V903.0H530.6ZM532.7 887.4H534.9V903.0H532.7ZM534.9 887.4H537.0V903.0H534.9ZM537.0 887.4H539.2V903.0H537.0ZM539.2 887.4H541.3V903.0H539.2ZM541.3 887.4H543.5V903.0H541.3ZM543.5 887.4H545.6V903.0H543.5ZM545.6 887.4H547.8V903.0H545.6ZM547.8 887.4H549.9V903.0H547.8ZM549.9 887.4H552.0V903.0H549.9ZM552.0 887.4H554.2V903.0H552.0ZM554.2 887.4H556.3V903.0H554.2ZM556.3 887.4H558.5V903.0H556.3ZM558.5 887.4H560.6V903.0H558.5ZM560.6 887.4H562.8V903.0H560.6ZM562.8 887.4H564.9V903.0H562.8ZM564.9 887.4H567.1V903.0H564.9ZM567.1 887.4H569.2V903.0H567.1ZM569.2 887.4H571.4V903.0H569.2ZM571.4 887.4H573.5V903.0H571.4ZM573.5 887.4H575.6V903.0H573.5ZM575.6 887.4H577.8V903.0H575.6ZM577.8 887.4H579.9V903.0H577.8ZM579.9 887.4H582.1V903.0H579.9ZM582.1 887.4H584.2V903.0H582.1ZM584.2 887.4H586.4V903.0H584.2ZM586.4 887.4H588.5V903.0H586.4ZM588.5 887.4H590.7V903.0H588.5ZM590.7 887.4H592.8V903.0H590.7ZM592.8 887.4H595.0V903.0H592.8ZM595.0 887.4H597.1V903.0H595.0ZM597.1 887.4H599.2V903.0H597.1ZM599.2 887.4H601.4V903.0H599.2ZM601.4 887.4H603.5V903.0H601.4ZM603.5 887.4H605.7V903.0H603.5ZM605.7 887.4H607.8V903.0H605.7ZM607.8 887.4H610.0V903.0H607.8ZM610.0 887.4H612.1V903.0H610.0ZM612.1 887.4H614.3V903.0H612.1ZM614.3 887.4H616.4V903.0H614.3ZM616.4 887.4H618.6V903.0H616.4ZM618.6 887.4H633.6V903.0H618.6ZM633.6 887.4H635.7V903.0H633.6ZM635.7 887.4H637.9V903.0H635.7ZM637.9 887.4H640.0V903.0H637.9ZM640.0 887.4H642.2V903.0H640.0ZM642.2 887.4H644.3V903.0H642.2ZM644.3 887.4H646.5V903.0H644.3ZM646.5 887.4H648.6V903.0H646.5ZM648.6 887.4H650.8V903.0H648.6ZM650.8 887.4H652.9V903.0H650.8ZM652.9 887.4H655.0V903.0H652.9ZM655.0 887.4H657.2V903.0H655.0ZM657.2 887.4H659.3V903.0H657.2ZM659.3 887.4H661.5V903.0H659.3ZM661.5 887.4H663.6V903.0H661.5ZM663.6 887.4H665.8V903.0H663.6ZM665.8 887.4H667.9V903.0H665.8ZM667.9 887.4H670.1V903.0H667.9ZM670.1 887.4H672.2V903.0H670.1ZM672.2 887.4H674.4V903.0H672.2ZM674.4 887.4H676.5V903.0H674.4ZM676.5 887.4H678.6V903.0H676.5ZM678.6 887.4H680.8V903.0H678.6ZM680.8 887.4H682.9V903.0H680.8ZM682.9 887.4H685.1V903.0H682.9ZM685.1 887.4H687.2V903.0H685.1ZM687.2 887.4H689.4V903.0H687.2ZM689.4 887.4H691.5V903.0H689.4ZM691.5 887.4H693.7V903.0H691.5ZM693.7 887.4H695.8V903.0H693.7ZM695.8 887.4H698.0V903.0H695.8ZM698.0 887.4H700.1V903.0H698.0ZM700.1 887.4H702.2V903.0H700.1ZM702.2 887.4H704.4V903.0H702.2ZM704.4 887.4H706.5V903.0H704.4ZM706.5 887.4H708.7V903.0H706.5ZM708.7 887.4H710.8V903.0H708.7ZM710.8 887.4H713.0V903.0H710.8ZM713.0 887.4H715.1V903.0H713.0ZM715.1 887.4H717.3V903.0H715.1ZM717.3 887.4H719.4V903.0H717.3ZM719.4 887.4H721.6V903.0H719.4ZM721.6 887.4H723.7V903.0H721.6ZM723.7 887.4H725.9V903.0H723.7ZM725.9 887.4H728.0V903.0H725.9ZM728.0 887.4H730.1V903.0H728.0ZM730.1 887.4H732.3V903.0H730.1ZM732.3 887.4H734.4V903.0H732.3ZM734.4 887.4H736.6V903.0H734.4ZM736.6 887.4H738.7V903.0H736.6ZM738.7 887.4H740.9V903.0H738.7ZM740.9 887.4H743.0V903.0H740.9ZM743.0 887.4H745.2V903.0H743.0ZM745.2 887.4H747.3V903.0H745.2ZM747.3 887.4H762.3V903.0H747.3ZM762.3 887.4H764.5V903.0H762.3ZM764.5 887.4H766.6V903.0H764.5ZM766.6 887.4H768.8V903.0H766.6ZM768.8 887.4H770.9V903.0H768.8ZM770.9 887.4H773.1V903.0H770.9ZM773.1 887.4H775.2V903.0H773.1ZM775.2 887.4H777.4V903.0H775.2ZM777.4 887.4H779.5V903.0H777.4ZM779.5 887.4H781.6V903.0H779.5ZM781.6 887.4H783.8V903.0H781.6ZM783.8 887.4H785.9V903.0H783.8ZM785.9 887.4H788.1V903.0H785.9ZM788.1 887.4H790.2V903.0H788.1ZM790.2 887.4H792.4V903.0H790.2ZM792.4 887.4H794.5V903.0H792.4ZM794.5 887.4H796.7V903.0H794.5ZM796.7 887.4H798.8V903.0H796.7ZM798.8 887.4H801.0V903.0H798.8ZM801.0 887.4H803.1V903.0H801.0ZM803.1 887.4H805.2V903.0H803.1ZM805.2 887.4H807.4V903.0H805.2ZM807.4 887.4H809.5V903.0H807.4ZM809.5 887.4H811.7V903.0H809.5ZM811.7 887.4H813.8V903.0H811.7ZM813.8 887.4H816.0V903.0H813.8ZM816.0 887.4H818.1V903.0H816.0ZM818.1 887.4H820.3V903.0H818.1ZM820.3 887.4H822.4V903.0H820.3ZM822.4 887.4H824.6V903.0H822.4ZM824.6 887.4H826.7V903.0H824.6ZM826.7 887.4H828.9V903.0H826.7ZM828.9 887.4H831.0V903.0H828.9ZM831.0 887.4H833.1V903.0H831.0ZM833.1 887.4H835.3V903.0H833.1ZM835.3 887.4H837.4V903.0H835.3ZM837.4 887.4H839.6V903.0H837.4ZM839.6 887.4H841.7V903.0H839.6ZM841.7 887.4H843.9V903.0H841.7ZM843.9 887.4H846.0V903.0H843.9ZM846.0 887.4H848.2V903.0H846.0ZM848.2 887.4H850.3V903.0H848.2ZM850.3 887.4H852.5V903.0H850.3ZM852.5 887.4H854.6V903.0H852.5ZM854.6 887.4H856.8V903.0H854.6ZM856.8 887.4H858.9V903.0H856.8ZM858.9 887.4H861.0V903.0H858.9ZM861.0 887.4H863.2V903.0H861.0ZM863.2 887.4H865.3V903.0H863.2ZM865.3 887.4H867.5V903.0H865.3ZM867.5 887.4H869.6V903.0H867.5ZM869.6 887.4H871.8V903.0H869.6ZM871.8 887.4H873.9V903.0H871.8ZM873.9 887.4H876.1V903.0H873.9ZM876.1 887.4H891.1V903.0H876.1ZM891.1 887.4H893.2V903.0H891.1ZM893.2 887.4H895.4V903.0H893.2ZM895.4 887.4H897.5V903.0H895.4ZM897.5 887.4H899.7V903.0H897.5ZM899.7 887.4H901.8V903.0H899.7ZM901.8 887.4H904.0V903.0H901.8ZM904.0 887.4H906.1V903.0H904.0ZM906.1 887.4H908.2V903.0H906.1ZM908.2 887.4H910.4V903.0H908.2ZM910.4 887.4H912.5V903.0H910.4ZM912.5 887.4H914.7V903.0H912.5ZM914.7 887.4H916.8V903.0H914.7ZM916.8 887.4H919.0V903.0H916.8ZM919.0 887.4H921.1V903.0H919.0ZM921.1 887.4H923.3V903.0H921.1ZM923.3 887.4H925.4V903.0H923.3ZM925.4 887.4H927.6V903.0H925.4ZM927.6 887.4H929.7V903.0H927.6ZM929.7 887.4H931.9V903.0H929.7ZM931.9 887.4H934.0V903.0H931.9ZM934.0 887.4H936.1V903.0H934.0ZM936.1 887.4H938.3V903.0H936.1ZM938.3 887.4H940.4V903.0H938.3ZM940.4 887.4H942.6V903.0H940.4ZM942.6 887.4H944.7V903.0H942.6ZM944.7 887.4H946.9V903.0H944.7ZM946.9 887.4H949.0V903.0H946.9ZM949.0 887.4H951.2V903.0H949.0ZM951.2 887.4H953.3V903.0H951.2ZM953.3 887.4H955.5V903.0H953.3ZM955.5 887.4H957.6V903.0H955.5ZM957.6 887.4H959.8V903.0H957.6ZM959.8 887.4H961.9V903.0H959.8ZM961.9 887.4H964.0V903.0H961.9ZM964.0 887.4H966.2V903.0H964.0ZM966.2 887.4H968.3V903.0H966.2ZM968.3 887.4H970.5V903.0H968.3ZM970.5 887.4H972.6V903.0H970.5ZM972.6 887.4H974.8V903.0H972.6ZM974.8 887.4H976.9V903.0H974.8ZM976.9 887.4H979.1V903.0H976.9ZM979.1 887.4H981.2V903.0H979.1ZM981.2 887.4H983.4V903.0H981.2ZM983.4 887.4H985.5V903.0H983.4ZM985.5 887.4H987.6V903.0H985.5ZM987.6 887.4H989.8V903.0H987.6ZM989.8 887.4H991.9V903.0H989.8ZM991.9 887.4H994.1V903.0H991.9ZM994.1 887.4H996.2V903.0H994.1ZM996.2 887.4H998.4V903.0H996.2ZM998.4 887.4H1000.5V903.0H998.4ZM1000.5 887.4H1002.7V903.0H1000.5ZM1002.7 887.4H1004.8V903.0H1002.7ZM1004.8 887.4H1019.8V903.0H1004.8ZM1019.8 887.4H1022.0V903.0H1019.8ZM1022.0 887.4H1024.1V903.0H1022.0ZM1024.1 887.4H1026.3V903.0H1024.1ZM1026.3 887.4H1028.4V903.0H1026.3ZM1028.4 887.4H1030.6V903.0H1028.4ZM1030.6 887.4H1032.7V903.0H1030.6ZM1032.7 887.4H1034.9V903.0H1032.7ZM1034.9 887.4H1037.0V903.0H1034.9ZM1037.0 887.4H1039.1V903.0H1037.0ZM1039.1 887.4H1041.3V903.0H1039.1ZM1041.3 887.4H1043.4V903.0H1041.3ZM1043.4 887.4H1045.6V903.0H1043.4ZM1045.6 887.4H1047.7V903.0H1045.6ZM1047.7 887.4H1049.9V903.0H1047.7ZM1049.9 887.4H1052.0V903.0H1049.9ZM1052.0 887.4H1054.2V903.0H1052.0ZM1054.2 887.4H1056.3V903.0H1054.2ZM1056.3 887.4H1058.5V903.0H1056.3ZM1058.5 887.4H1060.6V903.0H1058.5ZM1060.6 887.4H1062.8V903.0H1060.6ZM1062.8 887.4H1064.9V903.0H1062.8ZM1064.9 887.4H1067.0V903.0H1064.9ZM1067.0 887.4H1069.2V903.0H1067.0ZM1069.2 887.4H1071.3V903.0H1069.2ZM1071.3 887.4H1073.5V903.0H1071.3ZM1073.5 887.4H1075.6V903.0H1073.5ZM1075.6 887.4H1077.8V903.0H1075.6ZM1077.8 887.4H1079.9V903.0H1077.8ZM1079.9 887.4H1082.1V903.0H1079.9ZM1082.1 887.4H1084.2V903.0H1082.1ZM1084.2 887.4H1086.4V903.0H1084.2ZM1086.4 887.4H1088.5V903.0H1086.4ZM1088.5 887.4H1090.6V903.0H1088.5ZM1090.6 887.4H1092.8V903.0H1090.6ZM1092.8 887.4H1094.9V903.0H1092.8ZM1094.9 887.4H1097.1V903.0H1094.9ZM1097.1 887.4H1099.2V903.0H1097.1ZM1099.2 887.4H1101.4V903.0H1099.2ZM1101.4 887.4H1103.5V903.0H1101.4ZM1103.5 887.4H1105.7V903.0H1103.5ZM1105.7 887.4H1107.8V903.0H1105.7ZM1107.8 887.4H1110.0V903.0H1107.8ZM1110.0 887.4H1112.1V903.0H1110.0ZM1112.1 887.4H1114.2V903.0H1112.1ZM1114.2 887.4H1116.4V903.0H1114.2ZM1116.4 887.4H1118.5V903.0H1116.4ZM1118.5 887.4H1120.7V903.0H1118.5ZM1120.7 887.4H1122.8V903.0H1120.7ZM1122.8 887.4H1125.0V903.0H1122.8ZM1125.0 887.4H1127.1V903.0H1125.0ZM1127.1 887.4H1129.3V903.0H1127.1ZM1129.3 887.4H1131.4V903.0H1129.3ZM1131.4 887.4H1133.6V903.0H1131.4ZM1133.6 887.4H1140.0V903.0H1133.6Z"/>
<path class="frametime" d="M110.0 773.0H118.6M118.6 851.0H120.7M120.7 851.0H122.9M122.9 851.0H125.0M125.0 851.0H127.2M127.2 851.0H129.3M129.3 851.0H131.5M131.5 851.0H133.6M133.6 851.0H135.8M135.8 851.0H137.9M137.9 851.0H140.0M140.0 851.0H142.2M142.2 851.0H144.3M144.3 851.0H146.5M146.5 851.0H148.6M148.6 851.0H150.8M150.8 851.0H152.9M152.9 851.0H155.1M155.1 851.0H157.2M157.2 851.0H159.4M159.4 851.0H161.5M161.5 851.0H163.6M163.6 851.0H165.8M165.8 851.0H167.9M167.9 851.0H170.1M170.1 851.0H172.2M172.2 851.0H174.4M174.4 851.0H176.5M176.5 851.0H178.7M178.7 851.0H180.8M180.8 851.0H183.0M183.0 851.0H185.1M185.1 851.0H187.2M187.2 851.0H189.4M189.4 851.0H191.5M191.5 851.0H193.7M193.7 851.0H195.8M195.8 851.0H198.0M198.0 851.0H200.1M200.1 851.0H202.3M202.3 851.0H204.4M204.4 851.0H206.6M206.6 851.0H208.7M208.7 851.0H210.9M210.9 851.0H213.0M213.0 851.0H215.1M215.1 851.0H217.3M217.3 851.0H219.4M219.4 851.0H221.6M221.6 851.0H223.7M223.7 851.0H225.9M225.9 851.0H228.0M228.0 851.0H230.2M230.2 851.0H232.3M249.5 851.0H251.6M251.6 851.0H253.8M253.8 851.0H255.9M255.9 851.0H258.1M258.1 851.0H260.2M260.2 851.0H262.4M262.4 851.0H264.5M264.5 851.0H266.6M266.6 851.0H268.8M268.8 851.0H270.9M270.9 851.0H273.1M273.1 851.0H275.2M275.2 851.0H277.4M277.4 851.0H279.5M279.5 851.0H281.7M281.7 851.0H283.8M283.8 851.0H286.0M286.0 851.0H288.1M288.1 851.0H290.2M290.2 851.0H292.4M292.4 851.0H294.5M294.5 851.0H296.7M296.7 851.0H298.8M298.8 851.0H301.0M301.0 851.0H303.1M303.1 851.0H305.3M305.3 851.0H307.4M307.4 851.0H309.6M309.6 851.0H311.7M311.7 851.0H313.9M313.9 851.0H316.0M316.0 851.0H318.1M318.1 851.0H320.3M320.3 851.0H322.4M322.4 851.0H324.6M324.6 851.0H326.7M326.7 851.0H328.9M328.9 851.0H331.0M331.0 851.0H333.2M333.2 851.0H335.3M335.3 851.0H337.5M337.5 851.0H339.6M339.6 851.0H341.8M341.8 851.0H343.9M343.9 851.0H346.0M346.0 851.0H348.2M348.2 851.0H350.3M350.3 851.0H352.5M352.5 851.0H354.6M354.6 851.0H356.8M356.8 851.0H358.9M358.9 851.0H361.1M361.1 773.0H376.1M376.1 851.0H378.2M378.2 851.0H380.4M380.4 851.0H382.5M382.5 851.0H384.7M384.7 851.0H386.8M386.8 851.0H389.0M389.0 851.0H391.1M391.1 851.0H393.2M393.2 851.0H395.4M395.4 851.0H397.5M397.5 851.0H399.7M399.7 851.0H401.8M401.8 851.0H404.0M404.0 851.0H406.1M406.1 851.0H408.3M408.3 851.0H410.4M410.4 851.0H412.6M412.6 851.0H414.7M414.7 851.0H416.9M416.9 851.0H419.0M419.0 851.0H421.1M421.1 851.0H423.3M423.3 851.0H425.4M425.4 851.0H427.6M427.6 851.0H429.7M429.7 851.0H431.9M431.9 851.0H434.0M434.0 851.0H436.2M436.2 851.0H438.3M438.3 851.0H440.5M440.5 851.0H442.6M442.6 851.0H444.8M444.8 851.0H446.9M446.9 851.0H449.0M449.0 851.0H451.2M451.2 851.0H453.3M453.3 851.0H455.5M455.5 851.0H457.6M457.6 851.0H459.8M459.8 851.0H461.9M461.9 851.0H464.1M464.1 851.0H466.2M466.2 851.0H468.4M468.4 851.0H470.5M470.5 851.0H472.6M472.6 851.0H474.8M474.8 851.0H476.9M476.9 851.0H479.1M479.1 851.0H481.2M481.2 851.0H483.4M483.4 851.0H485.5M485.5 851.0H487.7M487.7 851.0H489.8M489.8 773.0H504.8M504.8 851.0H507.0M507.0 851.0H509.1M509.1 851.0H511.3M511.3 851.0H513.4M513.4 851.0H515.6M515.6 851.0H517.7M517.7 851.0H519.9M519.9 851.0H522.0M522.0 851.0H524.1M524.1 851.0H526.3M526.3 851.0H528.4M528.4 851.0H530.6M530.6 851.0H532.7M532.7 851.0H534.9M534.9 851.0H537.0M537.0 851.0H539.2M539.2 851.0H541.3M541.3 851.0H543.5M543.5 851.0H545.6M545.6 851.0H547.8M547.8 851.0H549.9M549.9 851.0H552.0M552.0 851.0H554.2M554.2 851.0H556.3M556.3 851.0H558.5M558.5 851.0H560.6M560.6 851.0H562.8M562.8 851.0H564.9M564.9 851.0H567.1M567.1 851.0H569.2M569.2 851.0H571.4M571.4 851.0H573.5M573.5 851.0H575.6M575.6 851.0H577.8M577.8 851.0H579.9M579.9 851.0H582.1M582.1 851.0H584.2M584.2 851.0H586.4M586.4 851.0H588.5M588.5 851.0H590.7M590.7 851.0H592.8M592.8 851.0H595.0M595.0 851.0H597.1M597.1 851.0H599.2M599.2 851.0H601.4M601.4 851.0H603.5M603.5 851.0H605.7M605.7 851.0H607.8M607.8 851.0H610.0M610.0 851.0H612.1M612.1 851.0H614.3M614.3 851.0H616.4M616.4 851.0H618.6M618.6 773.0H633.6M633.6 851.0H635.7M635.7 851.0H637.9M637.9 851.0H640.0M640.0 851.0H642.2M642.2 851.0H644.3M644.3 851.0H646.5M646.5 851.0H648.6M648.6 851.0H650.8M650.8 851.0H652.9M652.9 851.0H655.0M655.0 851.0H657.2M657.2 851.0H659.3M659.3 851.0H661.5M661.5 851.0H663.6M663.6 851.0H665.8M665.8 851.0H667.9M667.9 851.0H670.1M670.1 851.0H672.2M672.2 851.0H674.4M674.4 851.0H676.5M676.5 851.0H678.6M678.6 851.0H680.8M680.8 851.0H682.9M682.9 851.0H685.1M685.1 851.0H687.2M687.2 851.0H689.4M689.4 851.0H691.5M691.5 851.0H693.7M693.7 851.0H695.8M695.8 851.0H698.0M698.0 851.0H700.1M700.1 851.0H702.2M702.2 851.0H704.4M704.4 851.0H706.5M706.5 851.0H708.7M708.7 851.0H710.8M710.8 851.0H713.0M713.0 851.0H715.1M715.1 851.0H717.3M717.3 851.0H719.4M719.4 851.0H721.6M721.6 851.0H723.7M723.7 851.0H725.9M725.9 851.0H728.0M728.0 851.0H730.1M730.1 851.0H732.3M732.3 851.0H734.4M734.4 851.0H736.6M736.6 851.0H738.7M738.7 851.0H740.9M740.9 851.0H743.0M743.0 851.0H745.2M745.2 851.0H747.3M747.3 773.0H762.3M762.3 851.0H764.5M764.5 851.0H766.6M766.6 851.0H768.8M768.8 851.0H770.9M770.9 851.0H773.1M773.1 851.0H775.2M775.2 851.0H777.4M777.4 851.0H779.5M779.5 851.0H781.6M781.6 851.0H783.8M783.8 851.0H785.9M785.9 851.0H788.1M788.1 851.0H790.2M790.2 851.0H792.4M792.4 851.0H794.5M794.5 851.0H796.7M796.7 851.0H798.8M798.8 851.0H801.0M801.0 851.0H803.1M803.1 851.0H805.2M805.2 851.0H807.4M807.4 851.0H809.5M809.5 851.0H811.7M811.7 851.0H813.8M813.8 851.0H816.0M816.0 851.0H818.1M818.1 851.0H820.3M820.3 851.0H822.4M822.4 851.0H824.6M824.6 851.0H826.7M826.7 851.0H828.9M828.9 851.0H831.0M831.0 851.0H833.1M833.1 851.0H835.3M835.3 851.0H837.4M837.4 851.0H839.6M839.6 851.0H841.7M841.7 851.0H843.9M843.9 851.0H846.0M846.0 851.0H848.2M848.2 851.0H850.3M850.3 851.0H852.5M852.5 851.0H854.6M854.6 851.0H856.8M856.8 851.0H858.9M858.9 851.0H861.0M861.0 851.0H863.2M863.2 851.0H865.3M865.3 851.0H867.5M867.5 851.0H869.6M869.6 851.0H871.8M871.8 851.0H873.9M873.9 851.0H876.1M876.1 773.0H891.1M891.1 851.0H893.2M893.2 851.0H895.4M895.4 851.0H897.5M897.5 851.0H899.7M899.7 851.0H901.8M901.8 851.0H904.0M904.0 851.0H906.1M906.1 851.0H908.2M908.2 851.0H910.4M910.4 851.0H912.5M912.5 851.0H914.7M914.7 851.0H916.8M916.8 851.0H919.0M919.0 851.0H921.1M921.1 851.0H923.3M923.3 851.0H925.4M925.4 851.0H927.6M927.6 851.0H929.7M929.7 851.0H931.9M931.9 851.0H934.0M934.0 851.0H936.1M936.1 851.0H938.3M938.3 851.0H940.4M940.4 851.0H942.6M942.6 851.0H944.7M944.7 851.0H946.9M946.9 851.0H949.0M949.0 851.0H951.2M951.2 851.0H953.3M953.3 851.0H955.5M955.5 851.0H957.6M957.6 851.0H959.8M959.8 851.0H961.9M961.9 851.0H964.0M964.0 851.0H966.2M966.2 851.0H968.3M968.3 851.0H970.5M970.5 851.0H972.6M972.6 851.0H974.8M974.8 851.0H976.9M976.9 851.0H979.1M979.1 851.0H981.2M981.2 851.0H983.4M983.4 851.0H985.5M985.5 851.0H987.6M987.6 851.0H989.8M989.8 851.0H991.9M991.9 851.0H994.1M994.1 851.0H996.2M996.2 851.0H998.4M998.4 851.0H1000.5M1000.5 851.0H1002.7M1002.7 851.0H1004.8M1004.8 773.0H1019.8M1019.8 851.0H1022.0M1022.0 851.0H1024.1M1024.1 851.0H1026.3M1026.3 851.0H1028.4M1028.4 851.0H1030.6M1030.6 851.0H1032.7M1032.7 851.0H1034.9M1034.9 851.0H1037.0M1037.0 851.0H1039.1M1039.1 851.0H1041.3M1041.3 851.0H1043.4M1043.4 851.0H1045.6M1045.6 851.0H1047.7M1047.7 851.0H1049.9M1049.9 851.0H1052.0M1052.0 851.0H1054.2M1054.2 851.0H1056.3M1056.3 851.0H1058.5M1058.5 851.0H1060.6M1060.6 851.0H1062.8M1062.8 851.0H1064.9M1064.9 851.0H1067.0M1067.0 851.0H1069.2M1069.2 851.0H1071.3M1071.3 851.0H1073.5M1073.5 851.0H1075.6M1075.6 851.0H1077.8M1077.8 851.0H1079.9M1079.9 851.0H1082.1M1082.1 851.0H1084.2M1084.2 851.0H1086.4M1086.4 851.0H1088.5M1088.5 851.0H1090.6M1090.6 851.0H1092.8M1092.8 851.0H1094.9M1094.9 851.0H1097.1M1097.1 851.0H1099.2M1099.2 851.0H1101.4M1101.4 851.0H1103.5M1103.5 851.0H1105.7M1105.7 851.0H1107.8M1107.8 851.0H1110.0M1110.0 851.0H1112.1M1112.1 851.0H1114.2M1114.2 851.0H1116.4M1116.4 851.0H1118.5M1118.5 851.0H1120.7M1120.7 851.0H1122.8M1122.8 851.0H1125.0M1125.0 851.0H1127.1M1127.1 851.0H1129.3M1129.3 851.0H1131.4M1131.4 851.0H1133.6"/>
<path class="clip-mark" d="M368.6 773.0L364.6 779.0H372.6Z"/>
<text x="374.6" y="790.0" text-anchor="start" class="clip-text">116.7 ms</text>
<path class="clip-mark" d="M497.3 773.0L493.3 779.0H501.3Z"/>
<text x="503.3" y="790.0" text-anchor="start" class="clip-text">116.7 ms</text>
<path class="clip-mark" d="M626.1 773.0L622.1 779.0H630.1Z"/>
<text x="632.1" y="790.0" text-anchor="start" class="clip-text">116.7 ms</text>
<path class="clip-mark" d="M754.8 773.0L750.8 779.0H758.8Z"/>
<text x="760.8" y="790.0" text-anchor="start" class="clip-text">116.7 ms</text>
<path class="clip-mark" d="M883.6 773.0L879.6 779.0H887.6Z"/>
<text x="889.6" y="790.0" text-anchor="start" class="clip-text">116.7 ms</text>
<path class="clip-mark" d="M1012.3 773.0L1008.3 779.0H1016.3Z"/>
<text x="1018.3" y="790.0" text-anchor="start" class="clip-text">116.7 ms</text>
<path class="clip-mark" d="M114.3 773.0L110.3 779.0H118.3Z"/>
<text x="120.3" y="790.0" text-anchor="start" class="clip-text">66.7 ms</text>
<text x="110.0" y="921.0" text-anchor="middle" class="vsync-n">0 s</text>
<text x="238.8" y="921.0" text-anchor="middle" class="vsync-n">1 s</text>
<text x="367.5" y="921.0" text-anchor="middle" class="vsync-n">2 s</text>
<text x="496.2" y="921.0" text-anchor="middle" class="vsync-n">3 s</text>
<text x="625.0" y="921.0" text-anchor="middle" class="vsync-n">4 s</text>
<text x="753.8" y="921.0" text-anchor="middle" class="vsync-n">5 s</text>
<text x="882.5" y="921.0" text-anchor="middle" class="vsync-n">6 s</text>
<text x="1011.2" y="921.0" text-anchor="middle" class="vsync-n">7 s</text>
<text x="1140.0" y="921.0" text-anchor="middle" class="vsync-n">8 s</text>
<text x="20.0" y="957.0" text-anchor="start" class="label">SHARE OF LATE FRAMES IN THE LAST 2 S (WHOLE RUN 0.0 %)</text>
<line class="grid" x1="110" y1="1053.0" x2="1140" y2="1053.0"/>
<text x="100.0" y="1057.0" text-anchor="end" class="vsync-n">0</text>
<line class="grid" x1="110" y1="1013.0" x2="1140" y2="1013.0"/>
<text x="100.0" y="1017.0" text-anchor="end" class="vsync-n">2.5 %</text>
<line class="grid" x1="110" y1="973.0" x2="1140" y2="973.0"/>
<text x="100.0" y="977.0" text-anchor="end" class="vsync-n">5 %</text>
<rect class="static-band" x="110.0" y="973.0" width="8.6" height="80.0"/>
<rect class="static-band" x="232.3" y="973.0" width="17.2" height="80.0"/>
<rect class="static-band" x="361.1" y="973.0" width="15.0" height="80.0"/>
<rect class="static-band" x="489.8" y="973.0" width="15.0" height="80.0"/>
<rect class="static-band" x="618.6" y="973.0" width="15.0" height="80.0"/>
<rect class="static-band" x="747.3" y="973.0" width="15.0" height="80.0"/>
<rect class="static-band" x="876.1" y="973.0" width="15.0" height="80.0"/>
<rect class="static-band" x="1004.8" y="973.0" width="15.0" height="80.0"/>
<path class="late-line-none" d="M110.0 1053.0L118.6 1053.0L120.7 1053.0L122.9 1053.0L125.0 1053.0L127.2 1053.0L129.3 1053.0L131.5 1053.0L133.6 1053.0L135.8 1053.0L137.9 1053.0L140.0 1053.0L142.2 1053.0L144.3 1053.0L146.5 1053.0L148.6 1053.0L150.8 1053.0L152.9 1053.0L155.1 1053.0L157.2 1053.0L159.4 1053.0L161.5 1053.0L163.6 1053.0L165.8 1053.0L167.9 1053.0L170.1 1053.0L172.2 1053.0L174.4 1053.0L176.5 1053.0L178.7 1053.0L180.8 1053.0L183.0 1053.0L185.1 1053.0L187.2 1053.0L189.4 1053.0L191.5 1053.0L193.7 1053.0L195.8 1053.0L198.0 1053.0L200.1 1053.0L202.3 1053.0L204.4 1053.0L206.6 1053.0L208.7 1053.0L210.9 1053.0L213.0 1053.0L215.1 1053.0L217.3 1053.0L219.4 1053.0L221.6 1053.0L223.7 1053.0L225.9 1053.0L228.0 1053.0L230.2 1053.0L232.3 1053.0L249.5 1053.0L251.6 1053.0L253.8 1053.0L255.9 1053.0L258.1 1053.0L260.2 1053.0L262.4 1053.0L264.5 1053.0L266.6 1053.0L268.8 1053.0L270.9 1053.0L273.1 1053.0L275.2 1053.0L277.4 1053.0L279.5 1053.0L281.7 1053.0L283.8 1053.0L286.0 1053.0L288.1 1053.0L290.2 1053.0L292.4 1053.0L294.5 1053.0L296.7 1053.0L298.8 1053.0L301.0 1053.0L303.1 1053.0L305.3 1053.0L307.4 1053.0L309.6 1053.0L311.7 1053.0L313.9 1053.0L316.0 1053.0L318.1 1053.0L320.3 1053.0L322.4 1053.0L324.6 1053.0L326.7 1053.0L328.9 1053.0L331.0 1053.0L333.2 1053.0L335.3 1053.0L337.5 1053.0L339.6 1053.0L341.8 1053.0L343.9 1053.0L346.0 1053.0L348.2 1053.0L350.3 1053.0L352.5 1053.0L354.6 1053.0L356.8 1053.0L358.9 1053.0L361.1 1053.0L376.1 1053.0L378.2 1053.0L380.4 1053.0L382.5 1053.0L384.7 1053.0L386.8 1053.0L389.0 1053.0L391.1 1053.0L393.2 1053.0L395.4 1053.0L397.5 1053.0L399.7 1053.0L401.8 1053.0L404.0 1053.0L406.1 1053.0L408.3 1053.0L410.4 1053.0L412.6 1053.0L414.7 1053.0L416.9 1053.0L419.0 1053.0L421.1 1053.0L423.3 1053.0L425.4 1053.0L427.6 1053.0L429.7 1053.0L431.9 1053.0L434.0 1053.0L436.2 1053.0L438.3 1053.0L440.5 1053.0L442.6 1053.0L444.8 1053.0L446.9 1053.0L449.0 1053.0L451.2 1053.0L453.3 1053.0L455.5 1053.0L457.6 1053.0L459.8 1053.0L461.9 1053.0L464.1 1053.0L466.2 1053.0L468.4 1053.0L470.5 1053.0L472.6 1053.0L474.8 1053.0L476.9 1053.0L479.1 1053.0L481.2 1053.0L483.4 1053.0L485.5 1053.0L487.7 1053.0L489.8 1053.0L504.8 1053.0L507.0 1053.0L509.1 1053.0L511.3 1053.0L513.4 1053.0L515.6 1053.0L517.7 1053.0L519.9 1053.0L522.0 1053.0L524.1 1053.0L526.3 1053.0L528.4 1053.0L530.6 1053.0L532.7 1053.0L534.9 1053.0L537.0 1053.0L539.2 1053.0L541.3 1053.0L543.5 1053.0L545.6 1053.0L547.8 1053.0L549.9 1053.0L552.0 1053.0L554.2 1053.0L556.3 1053.0L558.5 1053.0L560.6 1053.0L562.8 1053.0L564.9 1053.0L567.1 1053.0L569.2 1053.0L571.4 1053.0L573.5 1053.0L575.6 1053.0L577.8 1053.0L579.9 1053.0L582.1 1053.0L584.2 1053.0L586.4 1053.0L588.5 1053.0L590.7 1053.0L592.8 1053.0L595.0 1053.0L597.1 1053.0L599.2 1053.0L601.4 1053.0L603.5 1053.0L605.7 1053.0L607.8 1053.0L610.0 1053.0L612.1 1053.0L614.3 1053.0L616.4 1053.0L618.6 1053.0L633.6 1053.0L635.7 1053.0L637.9 1053.0L640.0 1053.0L642.2 1053.0L644.3 1053.0L646.5 1053.0L648.6 1053.0L650.8 1053.0L652.9 1053.0L655.0 1053.0L657.2 1053.0L659.3 1053.0L661.5 1053.0L663.6 1053.0L665.8 1053.0L667.9 1053.0L670.1 1053.0L672.2 1053.0L674.4 1053.0L676.5 1053.0L678.6 1053.0L680.8 1053.0L682.9 1053.0L685.1 1053.0L687.2 1053.0L689.4 1053.0L691.5 1053.0L693.7 1053.0L695.8 1053.0L698.0 1053.0L700.1 1053.0L702.2 1053.0L704.4 1053.0L706.5 1053.0L708.7 1053.0L710.8 1053.0L713.0 1053.0L715.1 1053.0L717.3 1053.0L719.4 1053.0L721.6 1053.0L723.7 1053.0L725.9 1053.0L728.0 1053.0L730.1 1053.0L732.3 1053.0L734.4 1053.0L736.6 1053.0L738.7 1053.0L740.9 1053.0L743.0 1053.0L745.2 1053.0L747.3 1053.0L762.3 1053.0L764.5 1053.0L766.6 1053.0L768.8 1053.0L770.9 1053.0L773.1 1053.0L775.2 1053.0L777.4 1053.0L779.5 1053.0L781.6 1053.0L783.8 1053.0L785.9 1053.0L788.1 1053.0L790.2 1053.0L792.4 1053.0L794.5 1053.0L796.7 1053.0L798.8 1053.0L801.0 1053.0L803.1 1053.0L805.2 1053.0L807.4 1053.0L809.5 1053.0L811.7 1053.0L813.8 1053.0L816.0 1053.0L818.1 1053.0L820.3 1053.0L822.4 1053.0L824.6 1053.0L826.7 1053.0L828.9 1053.0L831.0 1053.0L833.1 1053.0L835.3 1053.0L837.4 1053.0L839.6 1053.0L841.7 1053.0L843.9 1053.0L846.0 1053.0L848.2 1053.0L850.3 1053.0L852.5 1053.0L854.6 1053.0L856.8 1053.0L858.9 1053.0L861.0 1053.0L863.2 1053.0L865.3 1053.0L867.5 1053.0L869.6 1053.0L871.8 1053.0L873.9 1053.0L876.1 1053.0L891.1 1053.0L893.2 1053.0L895.4 1053.0L897.5 1053.0L899.7 1053.0L901.8 1053.0L904.0 1053.0L906.1 1053.0L908.2 1053.0L910.4 1053.0L912.5 1053.0L914.7 1053.0L916.8 1053.0L919.0 1053.0L921.1 1053.0L923.3 1053.0L925.4 1053.0L927.6 1053.0L929.7 1053.0L931.9 1053.0L934.0 1053.0L936.1 1053.0L938.3 1053.0L940.4 1053.0L942.6 1053.0L944.7 1053.0L946.9 1053.0L949.0 1053.0L951.2 1053.0L953.3 1053.0L955.5 1053.0L957.6 1053.0L959.8 1053.0L961.9 1053.0L964.0 1053.0L966.2 1053.0L968.3 1053.0L970.5 1053.0L972.6 1053.0L974.8 1053.0L976.9 1053.0L979.1 1053.0L981.2 1053.0L983.4 1053.0L985.5 1053.0L987.6 1053.0L989.8 1053.0L991.9 1053.0L994.1 1053.0L996.2 1053.0L998.4 1053.0L1000.5 1053.0L1002.7 1053.0L1004.8 1053.0L1019.8 1053.0L1022.0 1053.0L1024.1 1053.0L1026.3 1053.0L1028.4 1053.0L1030.6 1053.0L1032.7 1053.0L1034.9 1053.0L1037.0 1053.0L1039.1 1053.0L1041.3 1053.0L1043.4 1053.0L1045.6 1053.0L1047.7 1053.0L1049.9 1053.0L1052.0 1053.0L1054.2 1053.0L1056.3 1053.0L1058.5 1053.0L1060.6 1053.0L1062.8 1053.0L1064.9 1053.0L1067.0 1053.0L1069.2 1053.0L1071.3 1053.0L1073.5 1053.0L1075.6 1053.0L1077.8 1053.0L1079.9 1053.0L1082.1 1053.0L1084.2 1053.0L1086.4 1053.0L1088.5 1053.0L1090.6 1053.0L1092.8 1053.0L1094.9 1053.0L1097.1 1053.0L1099.2 1053.0L1101.4 1053.0L1103.5 1053.0L1105.7 1053.0L1107.8 1053.0L1110.0 1053.0L1112.1 1053.0L1114.2 1053.0L1116.4 1053.0L1118.5 1053.0L1120.7 1053.0L1122.8 1053.0L1125.0 1053.0L1127.1 1053.0L1129.3 1053.0L1131.4 1053.0L1133.6 1053.0"/>
<text x="1140.0" y="957.0" text-anchor="end" class="vsync-n"><tspan class="key-green">━</tspan> none late  <tspan class="key-violet-a">■</tspan> static: nothing animates</text>
<text x="110.0" y="1071.0" text-anchor="middle" class="vsync-n">0 s</text>
<text x="238.8" y="1071.0" text-anchor="middle" class="vsync-n">1 s</text>
<text x="367.5" y="1071.0" text-anchor="middle" class="vsync-n">2 s</text>
<text x="496.2" y="1071.0" text-anchor="middle" class="vsync-n">3 s</text>
<text x="625.0" y="1071.0" text-anchor="middle" class="vsync-n">4 s</text>
<text x="753.8" y="1071.0" text-anchor="middle" class="vsync-n">5 s</text>
<text x="882.5" y="1071.0" text-anchor="middle" class="vsync-n">6 s</text>
<text x="1011.2" y="1071.0" text-anchor="middle" class="vsync-n">7 s</text>
<text x="1140.0" y="1071.0" text-anchor="middle" class="vsync-n">8 s</text>
<text x="20.0" y="1107.0" text-anchor="start" class="label">REFRESH STRIP: ONE CELL PER REFRESH, A NEW SHADE PER FRAME</text>
<text x="1140.0" y="1107.0" text-anchor="end" class="vsync-n"><tspan class="key-violet-a">▐</tspan><tspan class="key-violet-b">▌</tspan> static  <tspan class="key-orange">■</tspan> a dropped frame was due (repeat)</text>
<rect class="strip-static-a" x="110.5" y="1123" width="1.1" height="28" rx="2"/>
<rect class="strip-static-a" x="112.6" y="1123" width="1.1" height="28" rx="2"/>
<rect class="strip-static-a" x="114.8" y="1123" width="1.1" height="28" rx="2"/>
<rect class="strip-static-a" x="116.9" y="1123" width="1.1" height="28" rx="2"/>
<rect class="strip-b" x="119.1" y="1123" width="1.1" height="28" rx="2"/>
<rect class="strip-a" x="121.2" y="1123" width="1.1" height="28" rx="2"/>
<rect class="strip-b" x="123.4" y="1123" width="1.1" height="28" rx="2"/>
<rect class="strip-a" x="125.5" y="1123" width="1.1" height="28" rx="2"/>
<rect class="strip-b" x="127.7" y="1123" width="1.1" height="28" rx="2"/>
<rect class="strip-a" x="129.8" y="1123" width="1.1" height="28" rx="2"/>
<rect class="strip-b" x="132.0" y="1123" width="1.1" height="28" rx="2"/>
<rect class="strip-a" x="134.1" y="1123" width="1.1" height="28" rx="2"/>
<rect class="strip-b" x="136.2" y="1123" width="1.1" height="28" rx="2"/>
<rect class="strip-a" x="138.4" y="1123" width="1.1" height="28" rx="2"/>
<rect class="strip-b" x="140.5" y="1123" width="1.1" height="28" rx="2"/>
<rect class="strip-a" x="142.7" y="1123" width="1.1" height="28" rx="2"/>
<rect class="strip-b" x="144.8" y="1123" width="1.1" height="28" rx="2"/>
<rect class="strip-a" x="147.0" y="1123" width="1.1" height="28" rx="2"/>
<rect class="strip-b" x="149.1" y="1123" width="1.1" height="28" rx="2"/>
<rect class="strip-a" x="151.3" y="1123" width="1.1" height="28" rx="2"/>
<rect class="strip-b" x="153.4" y="1123" width="1.1" height="28" rx="2"/>
<rect class="strip-a" x="155.6" y="1123" width="1.1" height="28" rx="2"/>
<rect class="strip-b" x="157.7" y="1123" width="1.1" height="28" rx="2"/>
<rect class="strip-a" x="159.9" y="1123" width="1.1" height="28" rx="2"/>
<rect class="strip-b" x="162.0" y="1123" width="1.1" height="28" rx="2"/>
<rect class="strip-a" x="164.1" y="1123" width="1.1" height="28" rx="2"/>
<rect class="strip-b" x="166.3" y="1123" width="1.1" height="28" rx="2"/>
<rect class="strip-a" x="168.4" y="1123" width="1.1" height="28" rx="2"/>
<rect class="strip-b" x="170.6" y="1123" width="1.1" height="28" rx="2"/>
<rect class="strip-a" x="172.7" y="1123" width="1.1" height="28" rx="2"/>
<rect class="strip-b" x="174.9" y="1123" width="1.1" height="28" rx="2"/>
<rect class="strip-a" x="177.0" y="1123" width="1.1" height="28" rx="2"/>
<rect class="strip-b" x="179.2" y="1123" width="1.1" height="28" rx="2"/>
<rect class="strip-a" x="181.3" y="1123" width="1.1" height="28" rx="2"/>
<rect class="strip-b" x="183.5" y="1123" width="1.1" height="28" rx="2"/>
<rect class="strip-a" x="185.6" y="1123" width="1.1" height="28" rx="2"/>
<rect class="strip-b" x="187.8" y="1123" width="1.1" height="28" rx="2"/>
<rect class="strip-a" x="189.9" y="1123" width="1.1" height="28" rx="2"/>
<rect class="strip-b" x="192.0" y="1123" width="1.1" height="28" rx="2"/>
<rect class="strip-a" x="194.2" y="1123" width="1.1" height="28" rx="2"/>
<rect class="strip-b" x="196.3" y="1123" width="1.1" height="28" rx="2"/>
<rect class="strip-a" x="198.5" y="1123" width="1.1" height="28" rx="2"/>
<rect class="strip-b" x="200.6" y="1123" width="1.1" height="28" rx="2"/>
<rect class="strip-a" x="202.8" y="1123" width="1.1" height="28" rx="2"/>
<rect class="strip-b" x="204.9" y="1123" width="1.1" height="28" rx="2"/>
<rect class="strip-a" x="207.1" y="1123" width="1.1" height="28" rx="2"/>
<rect class="strip-b" x="209.2" y="1123" width="1.1" height="28" rx="2"/>
<rect class="strip-a" x="211.4" y="1123" width="1.1" height="28" rx="2"/>
<rect class="strip-b" x="213.5" y="1123" width="1.1" height="28" rx="2"/>
<rect class="strip-a" x="215.6" y="1123" width="1.1" height="28" rx="2"/>
<rect class="strip-b" x="217.8" y="1123" width="1.1" height="28" rx="2"/>
<rect class="strip-a" x="219.9" y="1123" width="1.1" height="28" rx="2"/>
<rect class="strip-b" x="222.1" y="1123" width="1.1" height="28" rx="2"/>
<rect class="strip-a" x="224.2" y="1123" width="1.1" height="28" rx="2"/>
<rect class="strip-b" x="226.4" y="1123" width="1.1" height="28" rx="2"/>
<rect class="strip-a" x="228.5" y="1123" width="1.1" height="28" rx="2"/>
<rect class="strip-b" x="230.7" y="1123" width="1.1" height="28" rx="2"/>
<rect class="strip-static-a" x="232.8" y="1123" width="1.1" height="28" rx="2"/>
<rect class="strip-dropped" x="235.0" y="1123" width="1.1" height="28" rx="2"/>
<rect class="strip-dropped" x="237.1" y="1123" width="1.1" height="28" rx="2"/>
<rect class="strip-dropped" x="239.3" y="1123" width="1.1" height="28" rx="2"/>
<rect class="strip-dropped" x="241.4" y="1123" width="1.1" height="28" rx="2"/>
<rect class="strip-dropped" x="243.5" y="1123" width="1.1" height="28" rx="2"/>
<rect class="strip-dropped" x="245.7" y="1123" width="1.1" height="28" rx="2"/>
<rect class="strip-dropped" x="247.8" y="1123" width="1.1" height="28" rx="2"/>
<rect class="strip-b" x="250.0" y="1123" width="1.1" height="28" rx="2"/>
<rect class="strip-a" x="252.1" y="1123" width="1.1" height="28" rx="2"/>
<rect class="strip-b" x="254.3" y="1123" width="1.1" height="28" rx="2"/>
<rect class="strip-a" x="256.4" y="1123" width="1.1" height="28" rx="2"/>
<rect class="strip-b" x="258.6" y="1123" width="1.1" height="28" rx="2"/>
<rect class="strip-a" x="260.7" y="1123" width="1.1" height="28" rx="2"/>
<rect class="strip-b" x="262.9" y="1123" width="1.1" height="28" rx="2"/>
<rect class="strip-a" x="265.0" y="1123" width="1.1" height="28" rx="2"/>
<rect class="strip-b" x="267.1" y="1123" width="1.1" height="28" rx="2"/>
<rect class="strip-a" x="269.3" y="1123" width="1.1" height="28" rx="2"/>
<rect class="strip-b" x="271.4" y="1123" width="1.1" height="28" rx="2"/>
<rect class="strip-a" x="273.6" y="1123" width="1.1" height="28" rx="2"/>
<rect class="strip-b" x="275.7" y="1123" width="1.1" height="28" rx="2"/>
<rect class="strip-a" x="277.9" y="1123" width="1.1" height="28" rx="2"/>
<rect class="strip-b" x="280.0" y="1123" width="1.1" height="28" rx="2"/>
<rect class="strip-a" x="282.2" y="1123" width="1.1" height="28" rx="2"/>
<rect class="strip-b" x="284.3" y="1123" width="1.1" height="28" rx="2"/>
<rect class="strip-a" x="286.5" y="1123" width="1.1" height="28" rx="2"/>
<rect class="strip-b" x="288.6" y="1123" width="1.1" height="28" rx="2"/>
<rect class="strip-a" x="290.8" y="1123" width="1.1" height="28" rx="2"/>
<rect class="strip-b" x="292.9" y="1123" width="1.1" height="28" rx="2"/>
<rect class="strip-a" x="295.0" y="1123" width="1.1" height="28" rx="2"/>
<rect class="strip-b" x="297.2" y="1123" width="1.1" height="28" rx="2"/>
<rect class="strip-a" x="299.3" y="1123" width="1.1" height="28" rx="2"/>
<rect class="strip-b" x="301.5" y="1123" width="1.1" height="28" rx="2"/>
<rect class="strip-a" x="303.6" y="1123" width="1.1" height="28" rx="2"/>
<rect class="strip-b" x="305.8" y="1123" width="1.1" height="28" rx="2"/>
<rect class="strip-a" x="307.9" y="1123" width="1.1" height="28" rx="2"/>
<rect class="strip-b" x="310.1" y="1123" width="1.1" height="28" rx="2"/>
<rect class="strip-a" x="312.2" y="1123" width="1.1" height="28" rx="2"/>
<rect class="strip-b" x="314.4" y="1123" width="1.1" height="28" rx="2"/>
<rect class="strip-a" x="316.5" y="1123" width="1.1" height="28" rx="2"/>
<rect class="strip-b" x="318.6" y="1123" width="1.1" height="28" rx="2"/>
<rect class="strip-a" x="320.8" y="1123" width="1.1" height="28" rx="2"/>
<rect class="strip-b" x="322.9" y="1123" width="1.1" height="28" rx="2"/>
<rect class="strip-a" x="325.1" y="1123" width="1.1" height="28" rx="2"/>
<rect class="strip-b" x="327.2" y="1123" width="1.1" height="28" rx="2"/>
<rect class="strip-a" x="329.4" y="1123" width="1.1" height="28" rx="2"/>
<rect class="strip-b" x="331.5" y="1123" width="1.1" height="28" rx="2"/>
<rect class="strip-a" x="333.7" y="1123" width="1.1" height="28" rx="2"/>
<rect class="strip-b" x="335.8" y="1123" width="1.1" height="28" rx="2"/>
<rect class="strip-a" x="338.0" y="1123" width="1.1" height="28" rx="2"/>
<rect class="strip-b" x="340.1" y="1123" width="1.1" height="28" rx="2"/>
<rect class="strip-a" x="342.2" y="1123" width="1.1" height="28" rx="2"/>
<rect class="strip-b" x="344.4" y="1123" width="1.1" height="28" rx="2"/>
<rect class="strip-a" x="346.5" y="1123" width="1.1" height="28" rx="2"/>
<rect class="strip-b" x="348.7" y="1123" width="1.1" height="28" rx="2"/>
<rect class="strip-a" x="350.8" y="1123" width="1.1" height="28" rx="2"/>
<rect class="strip-b" x="353.0" y="1123" width="1.1" height="28" rx="2"/>
<rect class="strip-a" x="355.1" y="1123" width="1.1" height="28" rx="2"/>
<rect class="strip-b" x="357.3" y="1123" width="1.1" height="28" rx="2"/>
<rect class="strip-a" x="359.4" y="1123" width="1.1" height="28" rx="2"/>
<rect class="strip-static-b" x="361.6" y="1123" width="1.1" height="28" rx="2"/>
<rect class="strip-static-b" x="363.7" y="1123" width="1.1" height="28" rx="2"/>
<rect class="strip-static-b" x="365.9" y="1123" width="1.1" height="28" rx="2"/>
<rect class="strip-static-b" x="368.0" y="1123" width="1.1" height="28" rx="2"/>
<rect class="strip-static-b" x="370.1" y="1123" width="1.1" height="28" rx="2"/>
<rect class="strip-static-b" x="372.3" y="1123" width="1.1" height="28" rx="2"/>
<rect class="strip-static-b" x="374.4" y="1123" width="1.1" height="28" rx="2"/>
<rect class="strip-a" x="376.6" y="1123" width="1.1" height="28" rx="2"/>
<rect class="strip-b" x="378.7" y="1123" width="1.1" height="28" rx="2"/>
<rect class="strip-a" x="380.9" y="1123" width="1.1" height="28" rx="2"/>
<rect class="strip-b" x="383.0" y="1123" width="1.1" height="28" rx="2"/>
<rect class="strip-a" x="385.2" y="1123" width="1.1" height="28" rx="2"/>
<rect class="strip-b" x="387.3" y="1123" width="1.1" height="28" rx="2"/>
<rect class="strip-a" x="389.5" y="1123" width="1.1" height="28" rx="2"/>
<rect class="strip-b" x="391.6" y="1123" width="1.1" height="28" rx="2"/>
<rect class="strip-a" x="393.8" y="1123" width="1.1" height="28" rx="2"/>
<rect class="strip-b" x="395.9" y="1123" width="1.1" height="28" rx="2"/>
<rect class="strip-a" x="398.0" y="1123" width="1.1" height="28" rx="2"/>
<rect class="strip-b" x="400.2" y="1123" width="1.1" height="28" rx="2"/>
<rect class="strip-a" x="402.3" y="1123" width="1.1" height="28" rx="2"/>
<rect class="strip-b" x="404.5" y="1123" width="1.1" height="28" rx="2"/>
<rect class="strip-a" x="406.6" y="1123" width="1.1" height="28" rx="2"/>
<rect class="strip-b" x="408.8" y="1123" width="1.1" height="28" rx="2"/>
<rect class="strip-a" x="410.9" y="1123" width="1.1" height="28" rx="2"/>
<rect class="strip-b" x="413.1" y="1123" width="1.1" height="28" rx="2"/>
<rect class="strip-a" x="415.2" y="1123" width="1.1" height="28" rx="2"/>
<rect class="strip-b" x="417.4" y="1123" width="1.1" height="28" rx="2"/>
<rect class="strip-a" x="419.5" y="1123" width="1.1" height="28" rx="2"/>
<rect class="strip-b" x="421.6" y="1123" width="1.1" height="28" rx="2"/>
<rect class="strip-a" x="423.8" y="1123" width="1.1" height="28" rx="2"/>
<rect class="strip-b" x="425.9" y="1123" width="1.1" height="28" rx="2"/>
<rect class="strip-a" x="428.1" y="1123" width="1.1" height="28" rx="2"/>
<rect class="strip-b" x="430.2" y="1123" width="1.1" height="28" rx="2"/>
<rect class="strip-a" x="432.4" y="1123" width="1.1" height="28" rx="2"/>
<rect class="strip-b" x="434.5" y="1123" width="1.1" height="28" rx="2"/>
<rect class="strip-a" x="436.7" y="1123" width="1.1" height="28" rx="2"/>
<rect class="strip-b" x="438.8" y="1123" width="1.1" height="28" rx="2"/>
<rect class="strip-a" x="441.0" y="1123" width="1.1" height="28" rx="2"/>
<rect class="strip-b" x="443.1" y="1123" width="1.1" height="28" rx="2"/>
<rect class="strip-a" x="445.2" y="1123" width="1.1" height="28" rx="2"/>
<rect class="strip-b" x="447.4" y="1123" width="1.1" height="28" rx="2"/>
<rect class="strip-a" x="449.5" y="1123" width="1.1" height="28" rx="2"/>
<rect class="strip-b" x="451.7" y="1123" width="1.1" height="28" rx="2"/>
<rect class="strip-a" x="453.8" y="1123" width="1.1" height="28" rx="2"/>
<rect class="strip-b" x="456.0" y="1123" width="1.1" height="28" rx="2"/>
<rect class="strip-a" x="458.1" y="1123" width="1.1" height="28" rx="2"/>
<rect class="strip-b" x="460.3" y="1123" width="1.1" height="28" rx="2"/>
<rect class="strip-a" x="462.4" y="1123" width="1.1" height="28" rx="2"/>
<rect class="strip-b" x="464.6" y="1123" width="1.1" height="28" rx="2"/>
<rect class="strip-a" x="466.7" y="1123" width="1.1" height="28" rx="2"/>
<rect class="strip-b" x="468.9" y="1123" width="1.1" height="28" rx="2"/>
<rect class="strip-a" x="471.0" y="1123" width="1.1" height="28" rx="2"/>
<rect class="strip-b" x="473.1" y="1123" width="1.1" height="28" rx="2"/>
<rect class="strip-a" x="475.3" y="1123" width="1.1" height="28" rx="2"/>
<rect class="strip-b" x="477.4" y="1123" width="1.1" height="28" rx="2"/>
<rect class="strip-a" x="479.6" y="1123" width="1.1" height="28" rx="2"/>
<rect class="strip-b" x="481.7" y="1123" width="1.1" height="28" rx="2"/>
<rect class="strip-a" x="483.9" y="1123" width="1.1" height="28" rx="2"/>
<rect class="strip-b" x="486.0" y="1123" width="1.1" height="28" rx="2"/>
<rect class="strip-a" x="488.2" y="1123" width="1.1" height="28" rx="2"/>
<rect class="strip-static-b" x="490.3" y="1123" width="1.1" height="28" rx="2"/>
<rect class="strip-static-b" x="492.5" y="1123" width="1.1" height="28" rx="2"/>
<rect class="strip-static-b" x="494.6" y="1123" width="1.1" height="28" rx="2"/>
<rect class="strip-static-b" x="496.8" y="1123" width="1.1" height="28" rx="2"/>
<rect class="strip-static-b" x="498.9" y="1123" width="1.1" height="28" rx="2"/>
<rect class="strip-static-b" x="501.0" y="1123" width="1.1" height="28" rx="2"/>
<rect class="strip-static-b" x="503.2" y="1123" width="1.1" height="28" rx="2"/>
<rect class="strip-a" x="505.3" y="1123" width="1.1" height="28" rx="2"/>
<rect class="strip-b" x="507.5" y="1123" width="1.1" height="28" rx="2"/>
<rect class="strip-a" x="509.6" y="1123" width="1.1" height="28" rx="2"/>
<rect class="strip-b" x="511.8" y="1123" width="1.1" height="28" rx="2"/>
<rect class="strip-a" x="513.9" y="1123" width="1.1" height="28" rx="2"/>
<rect class="strip-b" x="516.1" y="1123" width="1.1" height="28" rx="2"/>
<rect class="strip-a" x="518.2" y="1123" width="1.1" height="28" rx="2"/>
<rect class="strip-b" x="520.4" y="1123" width="1.1" height="28" rx="2"/>
<rect class="strip-a" x="522.5" y="1123" width="1.1" height="28" rx="2"/>
<rect class="strip-b" x="524.6" y="1123" width="1.1" height="28" rx="2"/>
<rect class="strip-a" x="526.8" y="1123" width="1.1" height="28" rx="2"/>
<rect class="strip-b" x="528.9" y="1123" width="1.1" height="28" rx="2"/>
<rect class="strip-a" x="531.1" y="1123" width="1.1" height="28" rx="2"/>
<rect class="strip-b" x="533.2" y="1123" width="1.1" height="28" rx="2"/>
<rect class="strip-a" x="535.4" y="1123" width="1.1" height="28" rx="2"/>
<rect class="strip-b" x="537.5" y="1123" width="1.1" height="28" rx="2"/>
<rect class="strip-a" x="539.7" y="1123" width="1.1" height="28" rx="2"/>
<rect class="strip-b" x="541.8" y="1123" width="1.1" height="28" rx="2"/>
<rect class="strip-a" x="544.0" y="1123" width="1.1" height="28" rx="2"/>
<rect class="strip-b" x="546.1" y="1123" width="1.1" height="28" rx="2"/>
<rect class="strip-a" x="548.2" y="1123" width="1.1" height="28" rx="2"/>
<rect class="strip-b" x="550.4" y="1123" width="1.1" height="28" rx="2"/>
<rect class="strip-a" x="552.5" y="1123" width="1.1" height="28" rx="2"/>
<rect class="strip-b" x="554.7" y="1123" width="1.1" height="28" rx="2"/>
<rect class="strip-a" x="556.8" y="1123" width="1.1" height="28" rx="2"/>
<rect class="strip-b" x="559.0" y="1123" width="1.1" height="28" rx="2"/>
<rect class="strip-a" x="561.1" y="1123" width="1.1" height="28" rx="2"/>
<rect class="strip-b" x="563.3" y="1123" width="1.1" height="28" rx="2"/>
<rect class="strip-a" x="565.4" y="1123" width="1.1" height="28" rx="2"/>
<rect class="strip-b" x="567.6" y="1123" width="1.1" height="28" rx="2"/>
<rect class="strip-a" x="569.7" y="1123" width="1.1" height="28" rx="2"/>
<rect class="strip-b" x="571.9" y="1123" width="1.1" height="28" rx="2"/>
<rect class="strip-a" x="574.0" y="1123" width="1.1" height="28" rx="2"/>
<rect class="strip-b" x="576.1" y="1123" width="1.1" height="28" rx="2"/>
<rect class="strip-a" x="578.3" y="1123" width="1.1" height="28" rx="2"/>
<rect class="strip-b" x="580.4" y="1123" width="1.1" height="28" rx="2"/>
<rect class="strip-a" x="582.6" y="1123" width="1.1" height="28" rx="2"/>
<rect class="strip-b" x="584.7" y="1123" width="1.1" height="28" rx="2"/>
<rect class="strip-a" x="586.9" y="1123" width="1.1" height="28" rx="2"/>
<rect class="strip-b" x="589.0" y="1123" width="1.1" height="28" rx="2"/>
<rect class="strip-a" x="591.2" y="1123" width="1.1" height="28" rx="2"/>
<rect class="strip-b" x="593.3" y="1123" width="1.1" height="28" rx="2"/>
<rect class="strip-a" x="595.5" y="1123" width="1.1" height="28" rx="2"/>
<rect class="strip-b" x="597.6" y="1123" width="1.1" height="28" rx="2"/>
<rect class="strip-a" x="599.8" y="1123" width="1.1" height="28" rx="2"/>
<rect class="strip-b" x="601.9" y="1123" width="1.1" height="28" rx="2"/>
<rect class="strip-a" x="604.0" y="1123" width="1.1" height="28" rx="2"/>
<rect class="strip-b" x="606.2" y="1123" width="1.1" height="28" rx="2"/>
<rect class="strip-a" x="608.3" y="1123" width="1.1" height="28" rx="2"/>
<rect class="strip-b" x="610.5" y="1123" width="1.1" height="28" rx="2"/>
<rect class="strip-a" x="612.6" y="1123" width="1.1" height="28" rx="2"/>
<rect class="strip-b" x="614.8" y="1123" width="1.1" height="28" rx="2"/>
<rect class="strip-a" x="616.9" y="1123" width="1.1" height="28" rx="2"/>
<rect class="strip-static-b" x="619.1" y="1123" width="1.1" height="28" rx="2"/>
<rect class="strip-static-b" x="621.2" y="1123" width="1.1" height="28" rx="2"/>
<rect class="strip-static-b" x="623.4" y="1123" width="1.1" height="28" rx="2"/>
<rect class="strip-static-b" x="625.5" y="1123" width="1.1" height="28" rx="2"/>
<rect class="strip-static-b" x="627.6" y="1123" width="1.1" height="28" rx="2"/>
<rect class="strip-static-b" x="629.8" y="1123" width="1.1" height="28" rx="2"/>
<rect class="strip-static-b" x="631.9" y="1123" width="1.1" height="28" rx="2"/>
<rect class="strip-a" x="634.1" y="1123" width="1.1" height="28" rx="2"/>
<rect class="strip-b" x="636.2" y="1123" width="1.1" height="28" rx="2"/>
<rect class="strip-a" x="638.4" y="1123" width="1.1" height="28" rx="2"/>
<rect class="strip-b" x="640.5" y="1123" width="1.1" height="28" rx="2"/>
<rect class="strip-a" x="642.7" y="1123" width="1.1" height="28" rx="2"/>
<rect class="strip-b" x="644.8" y="1123" width="1.1" height="28" rx="2"/>
<rect class="strip-a" x="647.0" y="1123" width="1.1" height="28" rx="2"/>
<rect class="strip-b" x="649.1" y="1123" width="1.1" height="28" rx="2"/>
<rect class="strip-a" x="651.2" y="1123" width="1.1" height="28" rx="2"/>
<rect class="strip-b" x="653.4" y="1123" width="1.1" height="28" rx="2"/>
<rect class="strip-a" x="655.5" y="1123" width="1.1" height="28" rx="2"/>
<rect class="strip-b" x="657.7" y="1123" width="1.1" height="28" rx="2"/>
<rect class="strip-a" x="659.8" y="1123" width="1.1" height="28" rx="2"/>
<rect class="strip-b" x="662.0" y="1123" width="1.1" height="28" rx="2"/>
<rect class="strip-a" x="664.1" y="1123" width="1.1" height="28" rx="2"/>
<rect class="strip-b" x="666.3" y="1123" width="1.1" height="28" rx="2"/>
<rect class="strip-a" x="668.4" y="1123" width="1.1" height="28" rx="2"/>
<rect class="strip-b" x="670.6" y="1123" width="1.1" height="28" rx="2"/>
<rect class="strip-a" x="672.7" y="1123" width="1.1" height="28" rx="2"/>
<rect class="strip-b" x="674.9" y="1123" width="1.1" height="28" rx="2"/>
<rect class="strip-a" x="677.0" y="1123" width="1.1" height="28" rx="2"/>
<rect class="strip-b" x="679.1" y="1123" width="1.1" height="28" rx="2"/>
<rect class="strip-a" x="681.3" y="1123" width="1.1" height="28" rx="2"/>
<rect class="strip-b" x="683.4" y="1123" width="1.1" height="28" rx="2"/>
<rect class="strip-a" x="685.6" y="1123" width="1.1" height="28" rx="2"/>
<rect class="strip-b" x="687.7" y="1123" width="1.1" height="28" rx="2"/>
<rect class="strip-a" x="689.9" y="1123" width="1.1" height="28" rx="2"/>
<rect class="strip-b" x="692.0" y="1123" width="1.1" height="28" rx="2"/>
<rect class="strip-a" x="694.2" y="1123" width="1.1" height="28" rx="2"/>
<rect class="strip-b" x="696.3" y="1123" width="1.1" height="28" rx="2"/>
<rect class="strip-a" x="698.5" y="1123" width="1.1" height="28" rx="2"/>
<rect class="strip-b" x="700.6" y="1123" width="1.1" height="28" rx="2"/>
<rect class="strip-a" x="702.8" y="1123" width="1.1" height="28" rx="2"/>
<rect class="strip-b" x="704.9" y="1123" width="1.1" height="28" rx="2"/>
<rect class="strip-a" x="707.0" y="1123" width="1.1" height="28" rx="2"/>
<rect class="strip-b" x="709.2" y="1123" width="1.1" height="28" rx="2"/>
<rect class="strip-a" x="711.3" y="1123" width="1.1" height="28" rx="2"/>
<rect class="strip-b" x="713.5" y="1123" width="1.1" height="28" rx="2"/>
<rect class="strip-a" x="715.6" y="1123" width="1.1" height="28" rx="2"/>
<rect class="strip-b" x="717.8" y="1123" width="1.1" height="28" rx="2"/>
<rect class="strip-a" x="719.9" y="1123" width="1.1" height="28" rx="2"/>
<rect class="strip-b" x="722.1" y="1123" width="1.1" height="28" rx="2"/>
<rect class="strip-a" x="724.2" y="1123" width="1.1" height="28" rx="2"/>
<rect class="strip-b" x="726.4" y="1123" width="1.1" height="28" rx="2"/>
<rect class="strip-a" x="728.5" y="1123" width="1.1" height="28" rx="2"/>
<rect class="strip-b" x="730.6" y="1123" width="1.1" height="28" rx="2"/>
<rect class="strip-a" x="732.8" y="1123" width="1.1" height="28" rx="2"/>
<rect class="strip-b" x="734.9" y="1123" width="1.1" height="28" rx="2"/>
<rect class="strip-a" x="737.1" y="1123" width="1.1" height="28" rx="2"/>
<rect class="strip-b" x="739.2" y="1123" width="1.1" height="28" rx="2"/>
<rect class="strip-a" x="741.4" y="1123" width="1.1" height="28" rx="2"/>
<rect class="strip-b" x="743.5" y="1123" width="1.1" height="28" rx="2"/>
<rect class="strip-a" x="745.7" y="1123" width="1.1" height="28" rx="2"/>
<rect class="strip-static-b" x="747.8" y="1123" width="1.1" height="28" rx="2"/>
<rect class="strip-static-b" x="750.0" y="1123" width="1.1" height="28" rx="2"/>
<rect class="strip-static-b" x="752.1" y="1123" width="1.1" height="28" rx="2"/>
<rect class="strip-static-b" x="754.3" y="1123" width="1.1" height="28" rx="2"/>
<rect class="strip-static-b" x="756.4" y="1123" width="1.1" height="28" rx="2"/>
<rect class="strip-static-b" x="758.5" y="1123" width="1.1" height="28" rx="2"/>
<rect class="strip-static-b" x="760.7" y="1123" width="1.1" height="28" rx="2"/>
<rect class="strip-a" x="762.8" y="1123" width="1.1" height="28" rx="2"/>
<rect class="strip-b" x="765.0" y="1123" width="1.1" height="28" rx="2"/>
<rect class="strip-a" x="767.1" y="1123" width="1.1" height="28" rx="2"/>
<rect class="strip-b" x="769.3" y="1123" width="1.1" height="28" rx="2"/>
<rect class="strip-a" x="771.4" y="1123" width="1.1" height="28" rx="2"/>
<rect class="strip-b" x="773.6" y="1123" width="1.1" height="28" rx="2"/>
<rect class="strip-a" x="775.7" y="1123" width="1.1" height="28" rx="2"/>
<rect class="strip-b" x="777.9" y="1123" width="1.1" height="28" rx="2"/>
<rect class="strip-a" x="780.0" y="1123" width="1.1" height="28" rx="2"/>
<rect class="strip-b" x="782.1" y="1123" width="1.1" height="28" rx="2"/>
<rect class="strip-a" x="784.3" y="1123" width="1.1" height="28" rx="2"/>
<rect class="strip-b" x="786.4" y="1123" width="1.1" height="28" rx="2"/>
<rect class="strip-a" x="788.6" y="1123" width="1.1" height="28" rx="2"/>
<rect class="strip-b" x="790.7" y="1123" width="1.1" height="28" rx="2"/>
<rect class="strip-a" x="792.9" y="1123" width="1.1" height="28" rx="2"/>
<rect class="strip-b" x="795.0" y="1123" width="1.1" height="28" rx="2"/>
<rect class="strip-a" x="797.2" y="1123" width="1.1" height="28" rx="2"/>
<rect class="strip-b" x="799.3" y="1123" width="1.1" height="28" rx="2"/>
<rect class="strip-a" x="801.5" y="1123" width="1.1" height="28" rx="2"/>
<rect class="strip-b" x="803.6" y="1123" width="1.1" height="28" rx="2"/>
<rect class="strip-a" x="805.8" y="1123" width="1.1" height="28" rx="2"/>
<rect class="strip-b" x="807.9" y="1123" width="1.1" height="28" rx="2"/>
<rect class="strip-a" x="810.0" y="1123" width="1.1" height="28" rx="2"/>
<rect class="strip-b" x="812.2" y="1123" width="1.1" height="28" rx="2"/>
<rect class="strip-a" x="814.3" y="1123" width="1.1" height="28" rx="2"/>
<rect class="strip-b" x="816.5" y="1123" width="1.1" height="28" rx="2"/>
<rect class="strip-a" x="818.6" y="1123" width="1.1" height="28" rx="2"/>
<rect class="strip-b" x="820.8" y="1123" width="1.1" height="28" rx="2"/>
<rect class="strip-a" x="822.9" y="1123" width="1.1" height="28" rx="2"/>
<rect class="strip-b" x="825.1" y="1123" width="1.1" height="28" rx="2"/>
<rect class="strip-a" x="827.2" y="1123" width="1.1" height="28" rx="2"/>
<rect class="strip-b" x="829.4" y="1123" width="1.1" height="28" rx="2"/>
<rect class="strip-a" x="831.5" y="1123" width="1.1" height="28" rx="2"/>
<rect class="strip-b" x="833.6" y="1123" width="1.1" height="28" rx="2"/>
<rect class="strip-a" x="835.8" y="1123" width="1.1" height="28" rx="2"/>
<rect class="strip-b" x="837.9" y="1123" width="1.1" height="28" rx="2"/>
<rect class="strip-a" x="840.1" y="1123" width="1.1" height="28" rx="2"/>
<rect class="strip-b" x="842.2" y="1123" width="1.1" height="28" rx="2"/>
<rect class="strip-a" x="844.4" y="1123" width="1.1" height="28" rx="2"/>
<rect class="strip-b" x="846.5" y="1123" width="1.1" height="28" rx="2"/>
<rect class="strip-a" x="848.7" y="1123" width="1.1" height="28" rx="2"/>
<rect class="strip-b" x="850.8" y="1123" width="1.1" height="28" rx="2"/>
<rect class="strip-a" x="853.0" y="1123" width="1.1" height="28" rx="2"/>
<rect class="strip-b" x="855.1" y="1123" width="1.1" height="28" rx="2"/>
<rect class="strip-a" x="857.2" y="1123" width="1.1" height="28" rx="2"/>
<rect class="strip-b" x="859.4" y="1123" width="1.1" height="28" rx="2"/>
<rect class="strip-a" x="861.5" y="1123" width="1.1" height="28" rx="2"/>
<rect class="strip-b" x="863.7" y="1123" width="1.1" height="28" rx="2"/>
<rect class="strip-a" x="865.8" y="1123" width="1.1" height="28" rx="2"/>
<rect class="strip-b" x="868.0" y="1123" width="1.1" height="28" rx="2"/>
<rect class="strip-a" x="870.1" y="1123" width="1.1" height="28" rx="2"/>
<rect class="strip-b" x="872.3" y="1123" width="1.1" height="28" rx="2"/>
<rect class="strip-a" x="874.4" y="1123" width="1.1" height="28" rx="2"/>
<rect class="strip-static-b" x="876.6" y="1123" width="1.1" height="28" rx="2"/>
<rect class="strip-static-b" x="878.7" y="1123" width="1.1" height="28" rx="2"/>
<rect class="strip-static-b" x="880.9" y="1123" width="1.1" height="28" rx="2"/>
<rect class="strip-static-b" x="883.0" y="1123" width="1.1" height="28" rx="2"/>
<rect class="strip-static-b" x="885.1" y="1123" width="1.1" height="28" rx="2"/>
<rect class="strip-static-b" x="887.3" y="1123" width="1.1" height="28" rx="2"/>
<rect class="strip-static-b" x="889.4" y="1123" width="1.1" height="28" rx="2"/>
<rect class="strip-a" x="891.6" y="1123" width="1.1" height="28" rx="2"/>
<rect class="strip-b" x="893.7" y="1123" width="1.1" height="28" rx="2"/>
<rect class="strip-a" x="895.9" y="1123" width="1.1" height="28" rx="2"/>
<rect class="strip-b" x="898.0" y="1123" width="1.1" height="28" rx="2"/>
<rect class="strip-a" x="900.2" y="1123" width="1.1" height="28" rx="2"/>
<rect class="strip-b" x="902.3" y="1123" width="1.1" height="28" rx="2"/>
<rect class="strip-a" x="904.5" y="1123" width="1.1" height="28" rx="2"/>
<rect class="strip-b" x="906.6" y="1123" width="1.1" height="28" rx="2"/>
<rect class="strip-a" x="908.8" y="1123" width="1.1" height="28" rx="2"/>
<rect class="strip-b" x="910.9" y="1123" width="1.1" height="28" rx="2"/>
<rect class="strip-a" x="913.0" y="1123" width="1.1" height="28" rx="2"/>
<rect class="strip-b" x="915.2" y="1123" width="1.1" height="28" rx="2"/>
<rect class="strip-a" x="917.3" y="1123" width="1.1" height="28" rx="2"/>
<rect class="strip-b" x="919.5" y="1123" width="1.1" height="28" rx="2"/>
<rect class="strip-a" x="921.6" y="1123" width="1.1" height="28" rx="2"/>
<rect class="strip-b" x="923.8" y="1123" width="1.1" height="28" rx="2"/>
<rect class="strip-a" x="925.9" y="1123" width="1.1" height="28" rx="2"/>
<rect class="strip-b" x="928.1" y="1123" width="1.1" height="28" rx="2"/>
<rect class="strip-a" x="930.2" y="1123" width="1.1" height="28" rx="2"/>
<rect class="strip-b" x="932.4" y="1123" width="1.1" height="28" rx="2"/>
<rect class="strip-a" x="934.5" y="1123" width="1.1" height="28" rx="2"/>
<rect class="strip-b" x="936.6" y="1123" width="1.1" height="28" rx="2"/>
<rect class="strip-a" x="938.8" y="1123" width="1.1" height="28" rx="2"/>
<rect class="strip-b" x="940.9" y="1123" width="1.1" height="28" rx="2"/>
<rect class="strip-a" x="943.1" y="1123" width="1.1" height="28" rx="2"/>
<rect class="strip-b" x="945.2" y="1123" width="1.1" height="28" rx="2"/>
<rect class="strip-a" x="947.4" y="1123" width="1.1" height="28" rx="2"/>
<rect class="strip-b" x="949.5" y="1123" width="1.1" height="28" rx="2"/>
<rect class="strip-a" x="951.7" y="1123" width="1.1" height="28" rx="2"/>
<rect class="strip-b" x="953.8" y="1123" width="1.1" height="28" rx="2"/>
<rect class="strip-a" x="956.0" y="1123" width="1.1" height="28" rx="2"/>
<rect class="strip-b" x="958.1" y="1123" width="1.1" height="28" rx="2"/>
<rect class="strip-a" x="960.2" y="1123" width="1.1" height="28" rx="2"/>
<rect class="strip-b" x="962.4" y="1123" width="1.1" height="28" rx="2"/>
<rect class="strip-a" x="964.5" y="1123" width="1.1" height="28" rx="2"/>
<rect class="strip-b" x="966.7" y="1123" width="1.1" height="28" rx="2"/>
<rect class="strip-a" x="968.8" y="1123" width="1.1" height="28" rx="2"/>
<rect class="strip-b" x="971.0" y="1123" width="1.1" height="28" rx="2"/>
<rect class="strip-a" x="973.1" y="1123" width="1.1" height="28" rx="2"/>
<rect class="strip-b" x="975.3" y="1123" width="1.1" height="28" rx="2"/>
<rect class="strip-a" x="977.4" y="1123" width="1.1" height="28" rx="2"/>
<rect class="strip-b" x="979.6" y="1123" width="1.1" height="28" rx="2"/>
<rect class="strip-a" x="981.7" y="1123" width="1.1" height="28" rx="2"/>
<rect class="strip-b" x="983.9" y="1123" width="1.1" height="28" rx="2"/>
<rect class="strip-a" x="986.0" y="1123" width="1.1" height="28" rx="2"/>
<rect class="strip-b" x="988.1" y="1123" width="1.1" height="28" rx="2"/>
<rect class="strip-a" x="990.3" y="1123" width="1.1" height="28" rx="2"/>
<rect class="strip-b" x="992.4" y="1123" width="1.1" height="28" rx="2"/>
<rect class="strip-a" x="994.6" y="1123" width="1.1" height="28" rx="2"/>
<rect class="strip-b" x="996.7" y="1123" width="1.1" height="28" rx="2"/>
<rect class="strip-a" x="998.9" y="1123" width="1.1" height="28" rx="2"/>
<rect class="strip-b" x="1001.0" y="1123" width="1.1" height="28" rx="2"/>
<rect class="strip-a" x="1003.2" y="1123" width="1.1" height="28" rx="2"/>
<rect class="strip-static-b" x="1005.3" y="1123" width="1.1" height="28" rx="2"/>
<rect class="strip-static-b" x="1007.5" y="1123" width="1.1" height="28" rx="2"/>
<rect class="strip-static-b" x="1009.6" y="1123" width="1.1" height="28" rx="2"/>
<rect class="strip-static-b" x="1011.8" y="1123" width="1.1" height="28" rx="2"/>
<rect class="strip-static-b" x="1013.9" y="1123" width="1.1" height="28" rx="2"/>
<rect class="strip-static-b" x="1016.0" y="1123" width="1.1" height="28" rx="2"/>
<rect class="strip-static-b" x="1018.2" y="1123" width="1.1" height="28" rx="2"/>
<rect class="strip-a" x="1020.3" y="1123" width="1.1" height="28" rx="2"/>
<rect class="strip-b" x="1022.5" y="1123" width="1.1" height="28" rx="2"/>
<rect class="strip-a" x="1024.6" y="1123" width="1.1" height="28" rx="2"/>
<rect class="strip-b" x="1026.8" y="1123" width="1.1" height="28" rx="2"/>
<rect class="strip-a" x="1028.9" y="1123" width="1.1" height="28" rx="2"/>
<rect class="strip-b" x="1031.1" y="1123" width="1.1" height="28" rx="2"/>
<rect class="strip-a" x="1033.2" y="1123" width="1.1" height="28" rx="2"/>
<rect class="strip-b" x="1035.4" y="1123" width="1.1" height="28" rx="2"/>
<rect class="strip-a" x="1037.5" y="1123" width="1.1" height="28" rx="2"/>
<rect class="strip-b" x="1039.6" y="1123" width="1.1" height="28" rx="2"/>
<rect class="strip-a" x="1041.8" y="1123" width="1.1" height="28" rx="2"/>
<rect class="strip-b" x="1043.9" y="1123" width="1.1" height="28" rx="2"/>
<rect class="strip-a" x="1046.1" y="1123" width="1.1" height="28" rx="2"/>
<rect class="strip-b" x="1048.2" y="1123" width="1.1" height="28" rx="2"/>
<rect class="strip-a" x="1050.4" y="1123" width="1.1" height="28" rx="2"/>
<rect class="strip-b" x="1052.5" y="1123" width="1.1" height="28" rx="2"/>
<rect class="strip-a" x="1054.7" y="1123" width="1.1" height="28" rx="2"/>
<rect class="strip-b" x="1056.8" y="1123" width="1.1" height="28" rx="2"/>
<rect class="strip-a" x="1059.0" y="1123" width="1.1" height="28" rx="2"/>
<rect class="strip-b" x="1061.1" y="1123" width="1.1" height="28" rx="2"/>
<rect class="strip-a" x="1063.2" y="1123" width="1.1" height="28" rx="2"/>
<rect class="strip-b" x="1065.4" y="1123" width="1.1" height="28" rx="2"/>
<rect class="strip-a" x="1067.5" y="1123" width="1.1" height="28" rx="2"/>
<rect class="strip-b" x="1069.7" y="1123" width="1.1" height="28" rx="2"/>
<rect class="strip-a" x="1071.8" y="1123" width="1.1" height="28" rx="2"/>
<rect class="strip-b" x="1074.0" y="1123" width="1.1" height="28" rx="2"/>
<rect class="strip-a" x="1076.1" y="1123" width="1.1" height="28" rx="2"/>
<rect class="strip-b" x="1078.3" y="1123" width="1.1" height="28" rx="2"/>
<rect class="strip-a" x="1080.4" y="1123" width="1.1" height="28" rx="2"/>
<rect class="strip-b" x="1082.6" y="1123" width="1.1" height="28" rx="2"/>
<rect class="strip-a" x="1084.7" y="1123" width="1.1" height="28" rx="2"/>
<rect class="strip-b" x="1086.9" y="1123" width="1.1" height="28" rx="2"/>
<rect class="strip-a" x="1089.0" y="1123" width="1.1" height="28" rx="2"/>
<rect class="strip-b" x="1091.1" y="1123" width="1.1" height="28" rx="2"/>
<rect class="strip-a" x="1093.3" y="1123" width="1.1" height="28" rx="2"/>
<rect class="strip-b" x="1095.4" y="1123" width="1.1" height="28" rx="2"/>
<rect class="strip-a" x="1097.6" y="1123" width="1.1" height="28" rx="2"/>
<rect class="strip-b" x="1099.7" y="1123" width="1.1" height="28" rx="2"/>
<rect class="strip-a" x="1101.9" y="1123" width="1.1" height="28" rx="2"/>
<rect class="strip-b" x="1104.0" y="1123" width="1.1" height="28" rx="2"/>
<rect class="strip-a" x="1106.2" y="1123" width="1.1" height="28" rx="2"/>
<rect class="strip-b" x="1108.3" y="1123" width="1.1" height="28" rx="2"/>
<rect class="strip-a" x="1110.5" y="1123" width="1.1" height="28" rx="2"/>
<rect class="strip-b" x="1112.6" y="1123" width="1.1" height="28" rx="2"/>
<rect class="strip-a" x="1114.8" y="1123" width="1.1" height="28" rx="2"/>
<rect class="strip-b" x="1116.9" y="1123" width="1.1" height="28" rx="2"/>
<rect class="strip-a" x="1119.0" y="1123" width="1.1" height="28" rx="2"/>
<rect class="strip-b" x="1121.2" y="1123" width="1.1" height="28" rx="2"/>
<rect class="strip-a" x="1123.3" y="1123" width="1.1" height="28" rx="2"/>
<rect class="strip-b" x="1125.5" y="1123" width="1.1" height="28" rx="2"/>
<rect class="strip-a" x="1127.6" y="1123" width="1.1" height="28" rx="2"/>
<rect class="strip-b" x="1129.8" y="1123" width="1.1" height="28" rx="2"/>
<rect class="strip-a" x="1131.9" y="1123" width="1.1" height="28" rx="2"/>
<rect class="strip-b" x="1134.1" y="1123" width="1.1" height="28" rx="2"/>
<rect class="strip-b" x="1136.2" y="1123" width="1.1" height="28" rx="2"/>
<rect class="strip-b" x="1138.4" y="1123" width="1.1" height="28" rx="2"/>
<text x="110.0" y="1169.0" text-anchor="middle" class="vsync-n">0 s</text>
<text x="238.8" y="1169.0" text-anchor="middle" class="vsync-n">1 s</text>
<text x="367.5" y="1169.0" text-anchor="middle" class="vsync-n">2 s</text>
<text x="496.2" y="1169.0" text-anchor="middle" class="vsync-n">3 s</text>
<text x="625.0" y="1169.0" text-anchor="middle" class="vsync-n">4 s</text>
<text x="753.8" y="1169.0" text-anchor="middle" class="vsync-n">5 s</text>
<text x="882.5" y="1169.0" text-anchor="middle" class="vsync-n">6 s</text>
<text x="1011.2" y="1169.0" text-anchor="middle" class="vsync-n">7 s</text>
<text x="1140.0" y="1169.0" text-anchor="middle" class="vsync-n">8 s</text>
<text x="20.0" y="1205.0" text-anchor="start" class="label">EVENTS: WHAT THE FRAMES DID, WHAT THE CAPTURE MISSED</text>
<text x="102.0" y="1230.0" text-anchor="end" class="vsync-n">frames</text>
<rect class="event-track" x="110.0" y="1221" width="1030.0" height="10" rx="2"/>
<rect class="event-dropped" x="247.0" y="1221" width="3.0" height="10" rx="1"/>
<text x="102.0" y="1246.0" text-anchor="end" class="vsync-n">capture</text>
<rect class="event-track" x="110.0" y="1237" width="1030.0" height="10" rx="2"/>
<text x="1140.0" y="1205.0" text-anchor="end" class="vsync-n">frames:  <tspan class="key-orange">■</tspan> 1 dropped  capture:  nothing missed</text>
<text x="110.0" y="1265.0" text-anchor="middle" class="vsync-n">0 s</text>
<text x="238.8" y="1265.0" text-anchor="middle" class="vsync-n">1 s</text>
<text x="367.5" y="1265.0" text-anchor="middle" class="vsync-n">2 s</text>
<text x="496.2" y="1265.0" text-anchor="middle" class="vsync-n">3 s</text>
<text x="625.0" y="1265.0" text-anchor="middle" class="vsync-n">4 s</text>
<text x="753.8" y="1265.0" text-anchor="middle" class="vsync-n">5 s</text>
<text x="882.5" y="1265.0" text-anchor="middle" class="vsync-n">6 s</text>
<text x="1011.2" y="1265.0" text-anchor="middle" class="vsync-n">7 s</text>
<text x="1140.0" y="1265.0" text-anchor="middle" class="vsync-n">8 s</text>
</svg>
